<svg width="454" height="451" viewBox="0 0 454 451" fill="none" xmlns="http://www.w3.org/2000/svg">
<path fill-rule="evenodd" clip-rule="evenodd" d="M167.855 225.059C167.855 216.973 170.668 206.523 173.375 201.078C178.773 190.219 180.648 187.613 189.277 180.094C210.379 161.715 243.426 161.715 264.527 180.094C270.723 185.492 269.336 183.746 275.164 191.59C302.52 228.387 274.262 284.059 226.902 284.059C219.285 284.059 208 281.086 202.898 278.543C195.426 274.816 195.543 275.113 189.285 270.02C176.187 259.359 167.855 242.746 167.855 225.059ZM219.434 151.793C181.109 155.953 148.836 189.645 153.578 233.055C157.719 270.937 191.602 302.844 234.754 298.348C272.687 294.395 304.883 259.926 300.207 216.984C296.117 179.437 262.137 147.156 219.434 151.793Z" fill="#132C3D"/>
<path fill-rule="evenodd" clip-rule="evenodd" d="M226.785 199.879L248.848 212.285L248.758 238.301L226.594 250.824L204.527 238.41L204.633 212.473L226.785 199.879ZM189.781 206.922V243.797C189.781 247.324 194.66 249.863 197.156 251.176C230.887 268.938 219.055 272.16 246.348 256.988C251.293 254.238 263.594 248.063 263.594 243.797V207.844C263.594 201.945 255.387 198.895 246.938 194.063C223.266 180.531 229.891 181.023 207.027 193.734C203.594 195.641 201.262 197.359 197.766 199.23C194.902 200.762 189.781 203.254 189.781 206.922Z" fill="#132C3D"/>
<path fill-rule="evenodd" clip-rule="evenodd" d="M269.129 388.691L269.102 416.328L239.629 430.762L239.684 403.137L269.129 388.691ZM195.562 388.504L224.895 402.969L224.617 430.852L195.301 416.453L195.562 388.504ZM206.406 375.605C212.297 374.23 229.105 363.535 232.418 363.297C233.941 363.184 236.316 364.629 238.379 365.77L245.129 369.176C249.074 370.957 254.859 374.641 258.996 375.605L236.387 388.121C234.973 388.859 234.695 389.574 232.977 389.75C229.734 390.082 212.477 378.859 206.406 377.449V375.605ZM438.891 300.195L438.863 327.836L409.395 342.266L409.445 314.637L438.891 300.195ZM365.336 300.078L394.656 314.473L394.379 342.359L365.059 327.961L365.336 300.078ZM276.523 367.309C272.691 367.309 246.812 351.469 239.621 349.793V324.902C250.539 324.66 266.344 319.406 276.238 314.48C284.246 310.492 298.348 300.203 303.816 293.172C306.578 289.621 308.246 288.016 310.664 284.348C312.902 280.953 315.164 277.895 317.121 274.203L346.75 290.688C348.832 291.918 350.336 291.746 350.336 294.484V325.824C350.336 328.539 349.234 328.105 347.348 329.293C338.812 334.676 323.105 342.008 314.395 347.066C310.676 349.227 278.191 367.309 276.523 367.309ZM114.145 325.824V294.484C114.145 291.816 116.809 291.078 121.23 288.656L147.355 274.203C151.176 281.414 155.719 286.734 160.273 292.641C168.473 303.277 186.152 314.238 198.484 318.988C204.086 321.145 218.062 324.754 224.859 324.902V349.793C221.211 350.766 191.082 367.309 188.875 367.309C185.547 367.309 173.215 359.703 169.797 357.793L122.434 332.289C118.187 330.102 114.145 328.496 114.145 325.824ZM99.3633 300.195L99.3398 327.836L69.8672 342.266L69.918 314.637L99.3633 300.195ZM25.8125 300.078L55.1328 314.473L54.8516 342.359L25.5352 327.961L25.8125 300.078ZM376.168 287.109C382.246 285.695 399.523 274.551 402.754 274.789C402.93 274.805 427.07 286.648 428.758 288.953C425.539 289.219 424.52 289.996 422.004 291.422C420.586 292.227 420.352 292.426 419.051 293.078L402 300.938C398.84 300.938 381.809 290.266 376.168 288.953V287.109ZM36.6406 287.109C42.7227 285.695 60 274.551 63.2305 274.789C63.4062 274.805 87.543 286.648 89.2305 288.953C83.1523 289.457 67.2969 300.938 62.4766 300.938C59.3125 300.938 42.2852 290.266 36.6406 288.953V287.109ZM225.375 148.199C272.086 144 309.508 179.969 313.117 221.887C317.164 268.859 281.617 306.207 239.391 309.824C192.309 313.859 155.164 278.453 151.395 236.316C147.156 188.984 182.793 152.023 225.375 148.199ZM318.043 185.707C320.242 185.121 325.441 182.117 327.801 180.711L357.715 164.508C361.191 164.508 373.094 171.266 376.781 173.109C380.223 174.828 382.563 176.004 386.008 177.719C388.77 179.094 394.621 180.898 394.621 183.863V259.453C394.621 262.727 380.59 268.305 377.398 269.902C351.898 282.641 362.375 280.559 340.809 269.895C334.605 266.828 329.371 263.438 323.578 260.375C323.883 256.703 325.609 252.699 326.441 248.488C330.641 227.305 327.828 204.184 318.043 185.707ZM136.285 223.504C136.285 234.508 135.813 236.902 137.883 247.719C138.773 252.363 140.582 256.559 140.898 260.375C101.504 281.203 112.445 282.355 93.3633 272.84C87.3672 269.848 75.4141 262.59 69.8555 261.297V182.02C73.6602 180.012 104.027 164.508 105.84 164.508C109.152 164.508 111.691 166.891 115.992 169.109C122.285 172.359 142.75 184.727 146.434 185.707C141.887 194.297 136.285 210.469 136.285 223.504ZM438.891 123.207L438.855 150.828L409.398 165.246L409.441 137.645L438.891 123.207ZM365.332 123.012L394.656 137.484L394.375 165.371L365.062 150.969L365.332 123.012ZM99.3633 123.207L99.332 150.828L69.8711 165.246L69.918 137.645L99.3633 123.207ZM25.8047 123.012L55.1328 137.484L54.8516 165.371L25.5352 150.969L25.8047 123.012ZM239.621 110.121C239.621 106.355 270.848 92.9336 275.605 90.7617C276.937 90.1524 280.211 88.2656 281.336 87.2734C283.363 85.4922 283.828 84.1758 283.906 80.6211L342.996 111.922C352.887 117.59 350.336 110.309 350.336 148.836C350.336 151.57 345.754 153.406 341.418 155.598L309.738 172.805C295.719 151.887 265.738 133.746 239.621 133.164V110.121ZM154.738 172.805L118.32 152.961C115.973 151.602 114.145 151.559 114.145 148.836C114.145 111.766 111.387 117.18 121.535 111.973L171.957 84.918C175.117 83.3555 177.723 82.1289 180.57 80.6211C180.57 88.8359 187.93 89.8281 201.484 96.5977C229.832 110.762 224.859 102.105 224.859 133.164C198.832 133.742 168.855 151.738 154.738 172.805ZM376.168 110.121C382.059 108.746 398.871 98.0508 402.18 97.8086C406.328 97.5078 421.277 109.496 428.758 110.121V111.961C423.984 113.074 419.84 115.953 415.543 118.117L402.738 124.266C399.5 124.598 382.238 113.375 376.168 111.961V110.121ZM36.6406 110.121C42.5312 108.746 59.3477 98.0508 62.6523 97.8086C66.8047 97.5078 81.75 109.496 89.2305 110.121V111.961C84.457 113.074 80.3125 115.953 76.0156 118.117L63.2148 124.266C59.9727 124.598 42.7148 113.375 36.6406 111.961V110.121ZM269.129 49.4609L269.094 77.082L239.629 91.5313L239.684 63.9063L269.129 49.4609ZM195.562 49.2734L224.895 63.7383L224.617 91.6211L195.301 77.2227L195.562 49.2734ZM206.406 36.375C212.293 35.0039 229.109 24.3047 232.418 24.0625C236.609 23.7617 251.695 35.7656 258.996 36.375V38.2188C254.934 39.1602 244.699 45.082 239.594 47.4102L232.977 50.5195C229.734 50.8516 212.477 39.6289 206.406 38.2188V36.375ZM180.57 63.1055L107.727 101.867C102.715 103.504 69.1211 81.543 62.4766 81.543C58.7891 81.543 39.9141 91.8906 35.4141 94.1406C29.5234 97.082 10.8086 104.863 10.8086 109.195V157.133C10.8086 161.383 26.0586 167.516 31.7227 170.344C39.7656 174.363 47.4297 177.969 55.0938 182.02V261.297L20.6484 278.504C17.4961 280.074 10.8086 282.445 10.8086 286.188V334.121C10.8086 338.445 29.0391 345.996 34.7969 348.871C66.6445 364.781 57.7891 365.5 84.3125 352.25C87.5 350.656 104.891 341.496 106.762 341.496C108.156 341.496 139.98 358.898 143.488 361.031L180.57 381.137C180.57 390.969 180.574 400.801 180.57 410.633C180.566 427.414 178.902 424.562 191.027 430.605C195.941 433.055 229.18 450.27 231.316 450.27C238.73 450.27 265.715 434.516 273.008 431.086C283.801 426.012 283.926 426.785 283.906 411.555C283.891 401.414 283.906 391.273 283.906 381.137C292.613 376.531 355.223 341.496 358.637 341.496C360.883 341.496 398.348 361.777 401.078 361.777C407.91 361.777 422.82 352.285 429.285 349.398C434.313 347.156 438.477 344.785 442.746 342.566C447.32 340.188 453.668 338.676 453.668 332.277V286.188C453.668 281.758 438.379 275.578 432.891 272.84C427.039 269.922 414.992 262.602 409.383 261.297V182.02C417.051 177.969 424.711 174.363 432.754 170.344C436.906 168.27 440.539 166.293 444.469 164.531C448.66 162.656 453.668 161.27 453.668 155.289V109.195C453.668 104.594 439.758 99.0391 436.02 97.332C393.957 78.1133 412.453 74.9727 364.48 99.3672C361.805 100.73 359.438 102.496 357.328 102.051L327.887 86.457C322.453 83.7734 318.578 81.3203 313.43 78.7774C308.281 76.2344 304.406 73.7813 298.973 71.0977L283.906 63.1055C283.906 25.793 288.457 35.3047 264.395 22.6836L251 15.7852C225.621 3.10938 236.305 5.41797 187.32 29.2891C183.621 31.0938 181.012 31.6992 180.539 36.3398C179.824 43.3906 180.57 55.5 180.57 63.1055Z" fill="#296790"/>
<path fill-rule="evenodd" clip-rule="evenodd" d="M259.614 381.679L259.586 409.316L230.114 423.749L230.168 396.124L259.614 381.679ZM186.051 381.492L215.379 395.956L215.102 423.839L185.786 409.445L186.051 381.492ZM196.891 368.593C202.782 367.222 219.59 356.527 222.903 356.285C224.426 356.175 226.801 357.617 228.864 358.757L235.614 362.167C239.559 363.945 245.344 367.632 249.481 368.593L226.872 381.109C225.457 381.851 225.18 382.562 223.461 382.738C220.223 383.07 202.961 371.851 196.891 370.437V368.593ZM429.376 293.187L429.348 320.828L399.88 335.257L399.93 307.625L429.376 293.187ZM355.825 293.07L385.141 307.464L384.864 335.347L355.544 320.949L355.825 293.07ZM267.008 360.296C263.176 360.296 237.297 344.456 230.106 342.781V317.894C241.024 317.652 256.829 312.398 266.723 307.468C274.731 303.48 288.833 293.195 294.301 286.164C297.063 282.609 298.731 281.007 301.149 277.335C303.387 273.941 305.649 270.886 307.606 267.195L337.235 283.679C339.317 284.91 340.821 284.738 340.821 287.472V318.816C340.821 321.527 339.719 321.093 337.833 322.285C329.297 327.667 313.59 334.999 304.879 340.058C301.161 342.218 268.676 360.296 267.008 360.296ZM104.629 318.816V287.472C104.629 284.808 107.293 284.066 111.715 281.648L137.844 267.195C141.66 274.406 146.203 279.726 150.758 285.632C158.957 296.265 176.637 307.226 188.969 311.98C194.571 314.136 208.547 317.742 215.344 317.894V342.781C211.696 343.753 181.567 360.296 179.36 360.296C176.032 360.296 163.703 352.695 160.282 350.785L112.918 325.281C108.672 323.089 104.629 321.488 104.629 318.816ZM89.8479 293.187L89.8244 320.828L60.3517 335.257L60.4025 307.625L89.8479 293.187ZM16.297 293.07L45.6173 307.464L45.3361 335.347L16.0196 320.949L16.297 293.07ZM366.653 280.097C372.731 278.683 390.009 267.539 393.239 267.781C393.415 267.793 417.555 279.64 419.243 281.941C416.024 282.21 415.005 282.988 412.489 284.414C411.071 285.214 410.837 285.417 409.536 286.07L392.485 293.925C389.325 293.925 372.294 283.257 366.653 281.941V280.097ZM27.129 280.097C33.2072 278.683 50.4845 267.539 53.715 267.781C53.8908 267.793 78.0276 279.64 79.7151 281.941C73.6369 282.449 57.7814 293.925 52.9611 293.925C49.8009 293.925 32.7697 283.257 27.129 281.941V280.097ZM215.86 141.187C262.571 136.992 299.993 172.961 303.602 214.875C307.649 261.847 272.102 299.199 229.875 302.816C182.793 306.851 145.649 271.445 141.879 229.304C137.641 181.976 173.278 145.015 215.86 141.187ZM308.528 178.699C310.727 178.113 315.93 175.105 318.286 173.699L348.2 157.496C351.676 157.496 363.579 164.257 367.27 166.101C370.708 167.82 373.048 168.992 376.493 170.711C379.255 172.082 385.106 173.886 385.106 176.855V252.445C385.106 255.718 371.075 261.296 367.883 262.89C342.383 275.628 352.86 273.546 331.294 262.882C325.09 259.816 319.856 256.429 314.063 253.367C314.368 249.695 316.094 245.687 316.926 241.48C321.126 220.293 318.313 197.175 308.528 178.699ZM126.77 216.492C126.77 227.496 126.297 229.894 128.367 240.707C129.258 245.351 131.067 249.55 131.383 253.367C91.9885 274.195 102.93 275.347 83.8479 265.828C77.8557 262.839 65.8986 255.582 60.34 254.289V175.011C64.1447 173 94.512 157.496 96.3245 157.496C99.637 157.496 102.18 159.879 106.477 162.101C112.77 165.351 133.235 177.714 136.918 178.699C132.371 187.285 126.77 203.461 126.77 216.492ZM429.376 116.195L429.341 143.816L399.884 158.234L399.926 130.632L429.376 116.195ZM355.817 116.004L385.141 130.472L384.86 158.359L355.548 143.961L355.817 116.004ZM89.8479 116.195L89.8166 143.816L60.3596 158.234L60.4025 130.632L89.8479 116.195ZM16.2892 116.004L45.6173 130.472L45.3361 158.359L16.0196 143.961L16.2892 116.004ZM230.106 103.109C230.106 99.3474 261.333 85.9255 266.09 83.7536C267.422 83.1443 270.696 81.2536 271.821 80.2614C273.848 78.4802 274.313 77.1677 274.391 73.6091L333.481 104.91C343.372 110.578 340.821 103.297 340.821 141.824C340.821 144.562 336.239 146.394 331.903 148.589L300.223 165.793C286.204 144.875 256.223 126.734 230.106 126.156V103.109ZM145.223 165.793L108.805 145.949C106.457 144.593 104.629 144.547 104.629 141.824C104.629 104.754 101.871 110.172 112.02 104.965L162.442 77.9099C165.602 76.3435 168.207 75.1169 171.055 73.6091C171.055 81.8278 178.418 82.82 191.969 89.5896C220.317 103.75 215.344 95.0935 215.344 126.156C189.317 126.734 159.34 144.726 145.223 165.793ZM366.653 103.109C372.544 101.738 389.356 91.0388 392.665 90.8005C396.813 90.4997 411.762 102.488 419.243 103.109V104.953C414.469 106.062 410.325 108.941 406.028 111.109L393.223 117.254C389.985 117.586 372.723 106.367 366.653 104.953V103.109ZM27.129 103.109C33.0158 101.738 49.8322 91.0388 53.1408 90.8005C57.2892 90.4997 72.2346 102.488 79.7151 103.109V104.953C74.9416 106.062 70.7971 108.941 66.5041 111.109L53.6994 117.254C50.4572 117.586 33.1994 106.367 27.129 104.953V103.109ZM259.614 42.449L259.579 70.0739L230.114 84.5192L230.168 56.8943L259.614 42.449ZM186.051 42.2615L215.379 56.7263L215.102 84.6091L185.786 70.2146L186.051 42.2615ZM196.891 29.3631C202.782 27.992 219.594 17.2928 222.903 17.0545C227.094 16.7498 242.18 28.7576 249.481 29.3631V31.2068C245.418 32.1521 235.184 38.0701 230.079 40.4021L223.461 43.5076C220.223 43.8396 202.961 32.6209 196.891 31.2068V29.3631ZM171.055 56.0974L98.2112 94.8552C93.1994 96.4958 59.6056 74.531 52.9611 74.531C49.2736 74.531 30.3986 84.8825 25.8986 87.1325C20.0079 90.0739 1.29306 97.8552 1.29306 102.187V150.121C1.29306 154.371 16.5431 160.507 22.2072 163.336C30.2501 167.351 37.9142 170.957 45.5783 175.011V254.289L11.1368 271.496C7.98057 273.066 1.29306 275.433 1.29306 279.175V327.113C1.29306 331.433 19.5236 338.984 25.2814 341.859C57.1291 357.769 48.2736 358.492 74.7971 345.242C77.9846 343.648 95.3752 334.488 97.2463 334.488C98.6409 334.488 130.465 351.886 133.973 354.023L171.055 374.124C171.055 383.956 171.059 393.788 171.055 403.624C171.051 420.406 169.387 417.55 181.512 423.597C186.426 426.046 219.664 443.261 221.801 443.261C229.215 443.261 256.2 427.507 263.493 424.078C274.286 418.999 274.411 419.777 274.391 404.546C274.376 394.406 274.391 384.265 274.391 374.124C283.098 369.519 345.708 334.488 349.122 334.488C351.368 334.488 388.833 354.765 391.563 354.765C398.395 354.765 413.305 345.277 419.77 342.39C424.798 340.144 428.962 337.773 433.231 335.554C437.805 333.179 444.153 331.667 444.153 325.269V279.175C444.153 274.75 428.864 268.566 423.376 265.828C417.524 262.91 405.477 255.593 399.868 254.289V175.011C407.536 170.957 415.196 167.351 423.239 163.336C427.391 161.261 431.024 159.281 434.954 157.523C439.145 155.648 444.153 154.261 444.153 148.277V102.187C444.153 97.5857 430.243 92.0271 426.505 90.32C384.442 71.1013 402.938 67.9607 354.965 92.3591C352.29 93.7185 349.922 95.4841 347.813 95.0427L318.372 79.4489C312.938 76.7653 309.063 74.3122 303.915 71.7654C298.766 69.2224 294.891 66.7693 289.458 64.0857L274.391 56.0974C274.391 18.781 278.942 28.2967 254.879 15.6717L241.485 8.77715C216.106 -3.90252 226.789 -1.59003 177.805 22.281C174.106 24.0857 171.496 24.6873 171.024 29.3318C170.309 36.3787 171.055 48.488 171.055 56.0974Z" fill="#5994BD" stroke="black" stroke-width="1.41861" stroke-miterlimit="22.9256"/>
<path fill-rule="evenodd" clip-rule="evenodd" d="M163.676 222.023C163.676 213.937 166.489 203.488 169.196 198.043C174.594 187.179 176.469 184.578 185.098 177.058C206.2 158.675 239.247 158.675 260.348 177.058C266.543 182.457 265.157 180.711 270.985 188.55C298.34 225.351 270.083 281.019 222.723 281.019C215.106 281.019 203.821 278.05 198.719 275.507C191.246 271.781 191.364 272.078 185.106 266.984C172.012 256.324 163.676 239.71 163.676 222.023ZM215.254 148.754C176.93 152.914 144.657 186.609 149.399 230.019C153.539 267.902 187.426 299.804 230.575 295.312C268.512 291.359 300.704 256.89 296.028 213.949C291.938 176.402 257.958 144.117 215.254 148.754Z" fill="#3189C6" stroke="black" stroke-width="1.41861" stroke-miterlimit="22.9256"/>
<path fill-rule="evenodd" clip-rule="evenodd" d="M215.254 148.754C257.958 144.117 291.938 176.402 296.028 213.949C300.704 256.89 268.512 291.359 230.575 295.312C187.426 299.804 153.539 267.902 149.399 230.019C144.657 186.609 176.93 152.914 215.254 148.754ZM215.86 141.187C173.278 145.015 137.641 181.976 141.879 229.304C145.649 271.445 182.793 306.851 229.875 302.816C272.102 299.199 307.649 261.847 303.602 214.875C299.993 172.961 262.571 136.992 215.86 141.187Z" fill="#82DAF1" stroke="black" stroke-width="1.41861" stroke-miterlimit="22.9256"/>
<path fill-rule="evenodd" clip-rule="evenodd" d="M222.825 196.543L244.883 208.949L244.797 234.964L222.633 247.488L200.563 235.078L200.668 209.136L222.825 196.543ZM185.817 203.586V240.46C185.817 243.988 190.696 246.527 193.192 247.839C226.922 265.601 215.09 268.824 242.383 253.652C247.329 250.902 259.629 244.726 259.629 240.46V204.511C259.629 198.609 251.422 195.558 242.977 190.726C219.301 177.195 225.926 177.687 203.063 190.398C199.629 192.304 197.297 194.027 193.805 195.894C190.938 197.425 185.817 199.918 185.817 203.586Z" fill="#1E81CE" stroke="black" stroke-width="1.41861" stroke-miterlimit="22.9256"/>
<path fill-rule="evenodd" clip-rule="evenodd" d="M16.0195 143.961L45.3359 158.359L45.6172 130.473L16.2891 116.004L16.0195 143.961Z" fill="#82DAF1"/>
<path fill-rule="evenodd" clip-rule="evenodd" d="M355.547 143.961L384.859 158.359L385.141 130.473L355.816 116.004L355.547 143.961Z" fill="#82DAF1"/>
<path fill-rule="evenodd" clip-rule="evenodd" d="M185.785 409.445L215.102 423.84L215.379 395.957L186.051 381.492L185.785 409.445Z" fill="#82DAF1"/>
<path fill-rule="evenodd" clip-rule="evenodd" d="M185.785 70.2148L215.102 84.6094L215.379 56.7266L186.051 42.2617L185.785 70.2148Z" fill="#82DAF1"/>
<path fill-rule="evenodd" clip-rule="evenodd" d="M16.0195 320.949L45.3359 335.348L45.6172 307.465L16.2969 293.07L16.0195 320.949Z" fill="#82DAF1"/>
<path fill-rule="evenodd" clip-rule="evenodd" d="M355.543 320.949L384.863 335.348L385.141 307.465L355.824 293.07L355.543 320.949Z" fill="#82DAF1"/>
<path fill-rule="evenodd" clip-rule="evenodd" d="M60.4023 307.625L60.3516 335.258L89.8242 320.828L89.8477 293.188L60.4023 307.625Z" fill="#82DAF1"/>
<path fill-rule="evenodd" clip-rule="evenodd" d="M399.93 307.625L399.879 335.258L429.348 320.828L429.375 293.188L399.93 307.625Z" fill="#82DAF1"/>
<path fill-rule="evenodd" clip-rule="evenodd" d="M230.168 396.125L230.113 423.75L259.586 409.316L259.613 381.68L230.168 396.125Z" fill="#82DAF1"/>
<path fill-rule="evenodd" clip-rule="evenodd" d="M230.168 56.8945L230.113 84.5195L259.578 70.0742L259.613 42.4492L230.168 56.8945Z" fill="#82DAF1"/>
<path fill-rule="evenodd" clip-rule="evenodd" d="M60.4023 130.633L60.3594 158.234L89.8164 143.816L89.8477 116.195L60.4023 130.633Z" fill="#82DAF1"/>
<path fill-rule="evenodd" clip-rule="evenodd" d="M399.926 130.633L399.883 158.234L429.34 143.816L429.375 116.195L399.926 130.633Z" fill="#82DAF1"/>
</svg>
