<svg width="387" height="364" viewBox="0 0 387 364" fill="none" xmlns="http://www.w3.org/2000/svg">
<path fill-rule="evenodd" clip-rule="evenodd" d="M358.094 323.855C379.469 317.992 387.766 350.645 366.441 355.73C345.016 360.844 337.258 329.574 358.094 323.855ZM23.543 324.031C44.4375 317.629 53.0938 349.406 33.0508 355.504C12.0039 361.902 1.6875 330.73 23.543 324.031ZM190.809 323.934C200.746 321.098 209.527 327.945 211.34 335.898C213.543 345.535 207.25 353.605 199.75 355.625C178.367 361.375 169.543 330 190.809 323.934ZM136.812 240.496C142.715 240.496 149.801 237.863 154.016 235.754C166.277 229.621 176.902 220.211 182.125 207.473C182.906 205.57 182.891 205.035 183.73 203.199C185.832 198.602 186.305 200.281 203.617 200.281C207.434 200.281 205.809 205.137 211.719 214.035C215.164 219.227 217.613 222.297 221.992 226.48C227.848 232.074 242.484 240.496 253.508 240.496L217.414 297.73C215.25 301.367 213.316 303.953 211.188 307.477C209.562 310.168 206.156 314.426 205.309 317.57C200.191 317.148 203.312 315.895 193.469 315.895C189.195 315.895 188.977 317.242 185.012 317.57C184.207 314.586 181.184 310.801 179.453 308L136.812 240.496ZM133.219 176.445C137.23 175.145 233.594 176.047 251.816 176.008C258.777 175.992 264.395 175.145 267.277 179.984C270.48 185.363 267.195 190.719 263.023 192.117C258.562 193.613 162.777 192.699 144.426 192.719C137.883 192.727 131.613 193.559 128.566 189.188C124.742 183.699 128.297 178.043 133.219 176.445ZM259.426 161.742H323.691C329.266 161.742 335.043 165.637 337.887 168.625C346.121 177.273 346.121 191.453 337.887 200.105C335.043 203.094 329.266 206.984 323.691 206.984H259.426C252.961 206.984 246.73 204.02 244.207 200.281C251.52 200.281 261.012 201.191 266.445 198.855C278.805 193.539 279.539 176.215 267.02 170.141C261.699 167.555 251.977 168.445 244.207 168.445C245.207 167.09 248.543 164.559 250.367 163.66C252.848 162.441 255.969 161.742 259.426 161.742ZM119.902 181.852C119.902 199.809 130.184 200.281 146.117 200.281C143.039 204.441 136.789 206.984 130.895 206.984H66.6289C61.0586 206.984 55.2773 203.094 52.4336 200.105C38.2852 185.242 50.5117 161.742 66.6289 161.742H130.895C136.789 161.742 143.039 164.285 146.117 168.445C138.547 168.445 134.055 167.652 128.613 170.375C124.641 172.363 119.902 176.465 119.902 181.852ZM213.777 169.035C214.121 162.859 221.605 153.012 224.617 149.863C243.414 130.195 272.73 134.926 300.016 134.926C321.27 134.926 336.523 133.719 350.973 144.781C360.926 152.398 371.027 165.98 371.027 184.363C371.027 202.734 360.555 217.148 350.492 224.312C334.965 235.363 322.176 233.801 300.016 233.801C282.223 233.801 257.586 235.926 242.52 230.438C229.59 225.73 214.352 210.719 213.777 199.691L233.969 199.695C240.309 206.906 245.246 214.254 260.238 214.633C273.605 214.973 287.441 214.641 300.859 214.641C314.523 214.641 326.727 216.289 337.078 210.191C356.738 198.605 356.238 169.289 336.531 158.234C326.117 152.395 313.289 154.086 300.016 154.086C286.758 154.086 272.523 153.59 259.387 154.117C245.039 154.695 240.074 162.023 233.969 169.035H213.777ZM176.543 199.691C176.227 205.695 168.594 215.82 165.688 218.848C146.758 238.57 117.863 233.801 90.3047 233.801C69.0234 233.801 53.7617 235.031 39.332 223.961C29.25 216.223 19.293 202.891 19.2969 184.363C19.2969 165.73 29.7227 151.848 39.8359 144.422C54.3594 133.754 69.1602 134.926 90.3047 134.926C108.305 134.926 132.406 132.836 147.785 138.297C160.699 142.883 175.938 158.008 176.535 169.027L156.348 169.035C150.023 161.73 145.031 154.488 130.082 154.094C116.73 153.742 102.871 154.086 89.4609 154.086C75.6406 154.086 63.7305 152.41 53.2422 158.535C33.8125 169.875 33.8359 199.402 53.7734 210.504C64.25 216.34 76.9727 214.641 90.3047 214.641C103.57 214.641 117.785 215.129 130.934 214.609C145.336 214.043 150.203 206.551 156.344 199.691H176.543ZM185.012 51.1562C190.129 51.5781 187.012 52.832 196.852 52.832C201.125 52.832 201.344 51.4844 205.309 51.1562C206.086 54.043 209.121 58.0898 210.895 60.7031C215.664 67.7344 252.73 125.355 253.508 128.23C236.922 128.23 220.543 141.551 212.059 154.191C210.508 156.5 209.445 158.203 208.195 161.254C204.434 170.422 209.492 168.445 186.703 168.445C184.016 168.445 184.434 167.074 182.367 161.852C179.727 155.188 173.547 146.848 168.305 142.27C161.797 136.582 148.504 128.23 136.812 128.23C137.594 125.348 140.625 121.301 142.398 118.684L154.531 99.707C158.715 92.7851 184.102 54.5391 185.012 51.1562ZM358.191 13.0976C367.723 10.5469 376.457 16.7461 378.445 24.5742C381 34.6172 374.312 43.1172 366.48 44.957C344.883 50.0351 337.285 18.6875 358.191 13.0976ZM23.6484 13.2656C44.2656 6.86718 53.2305 38.6094 33.0312 44.668C12.3438 50.875 1.20703 20.2266 23.6484 13.2656ZM190.906 13.1758C200.738 10.3359 209.516 17.207 211.332 25.0937C213.527 34.6367 207.219 42.8594 199.793 44.8437C178.348 50.5703 169.512 19.3516 190.906 13.1758ZM4.05469 26.8594C4.05469 45.5703 15.0312 52.832 33.6523 52.832C37.0781 67.3984 62.5039 119.379 63.2461 128.23C51.3516 128.23 42.3125 133.266 33.9883 139.457C0.136719 164.637 6.93359 214.688 42.1211 234.617C44.5352 235.984 48.5898 237.484 51.7031 238.527C55.8516 239.91 57.9727 240.496 63.2461 240.496C62.8086 245.73 44.5195 288.129 41.1406 296.508C38.7227 302.5 35.1641 309.461 33.6523 315.895C23.8867 315.895 18.832 316.605 13.2148 320.781C1.68359 329.348 1.31641 347.473 11.418 357.195C35.0391 379.93 71.6445 339.965 40.4141 319.246C46.582 306.516 61.3945 267.277 67.7188 251.625C69.0156 248.418 70.9844 244.383 71.7031 241.332H127.512C136.355 254.414 144.344 267.77 153.23 281.199C155.484 284.609 157.301 287.547 159.375 291.027L179.094 321.758C174.422 328.672 167.406 334.957 172.645 348.258C185.324 380.457 233.16 356.875 215.758 327.324C214.066 324.453 212.91 324.254 211.227 321.758L220.691 306.84C221.906 304.961 222.879 303.715 224.078 301.816C228.438 294.91 232.316 288.563 236.758 281.707L262.809 241.332H318.617C319.316 244.301 321.082 247.855 322.363 251.027L349.906 319.246C337.172 327.695 334.051 344.035 344.492 355.605C345.578 356.809 344.977 356.145 345.746 356.875C354.664 365.375 369.91 365.848 378.906 357.195C388.926 347.547 388.59 329.988 377.586 321.141C372.086 316.719 366.453 315.895 356.668 315.895C353.246 301.328 327.816 249.348 327.074 240.496C355 240.496 378.656 211.586 378.656 184.363C378.656 168.914 371.219 153.844 363.23 146.027C353.336 136.352 342.477 128.23 327.074 128.23C327.551 122.574 338.867 97.7695 341.691 90.7734C344.316 84.2773 346.602 78.6133 349.18 72.2187C350.414 69.1641 351.652 66.0859 353.043 62.6445C354.445 59.1836 355.824 56.4336 356.668 52.832C366.285 52.832 371.559 52.0586 377.117 47.9531C399.684 31.2969 378.215 -4.66016 351.57 7.5664C334.406 15.4453 334.121 39.0078 349.906 49.4805C343.809 62.0703 339.496 75.2578 334.199 88.3789C331.062 96.1523 320.383 119.883 318.617 127.395H262.809C258.383 120.844 254.492 114.113 249.953 107.457C247.734 104.203 245.852 101.168 243.719 97.7187C241.312 93.8281 239.438 91.2539 237.172 87.4492C234.953 83.7266 233.164 81.418 230.945 77.6992L211.227 46.9687C215.898 40.0547 222.914 33.7695 217.676 20.4687C205 -11.7305 157.16 11.8516 174.562 41.4023C176.258 44.2734 177.41 44.4766 179.094 46.9687C161.301 73.293 145.297 101.082 127.512 127.395H71.7031C70.2617 121.262 66.4531 113.965 64.0938 108.125C58.3789 93.9883 46.5547 62.1562 40.4141 49.4805C44.2617 46.9297 45.6289 45.4609 48.3984 41.4687C54.5547 32.5937 52.0273 19.6172 45.4219 12.6836C30.9609 -2.50391 4.05469 7.17578 4.05469 26.8594Z" fill="#152536"/>
<path fill-rule="evenodd" clip-rule="evenodd" d="M209.543 169.035H229.734C235.84 162.023 240.805 154.695 255.156 154.117C268.289 153.59 282.527 154.086 295.781 154.086C309.055 154.086 321.883 152.395 332.297 158.234C352.004 169.289 352.504 198.605 332.844 210.191C322.492 216.289 310.289 214.641 296.625 214.641C283.207 214.641 269.371 214.973 256.004 214.633C241.012 214.254 236.074 206.906 229.734 199.695L209.543 199.691C210.121 210.719 225.359 225.73 238.285 230.438C253.355 235.926 277.992 233.801 295.781 233.801C317.941 233.801 330.73 235.363 346.258 224.312C356.324 217.148 366.793 202.734 366.793 184.363C366.793 165.98 356.691 152.398 346.738 144.781C332.289 133.719 317.035 134.926 295.781 134.926C268.496 134.926 239.18 130.195 220.383 149.863C217.375 153.012 209.891 162.859 209.543 169.035Z" fill="#213952"/>
<path fill-rule="evenodd" clip-rule="evenodd" d="M172.309 199.691H152.109C145.969 206.551 141.102 214.043 126.699 214.609C113.551 215.129 99.3359 214.641 86.0742 214.641C72.7383 214.641 60.0195 216.34 49.543 210.504C29.6016 199.402 29.5781 169.875 49.0078 158.535C59.4961 152.41 71.4063 154.086 85.2266 154.086C98.6367 154.086 112.496 153.742 125.848 154.094C140.797 154.488 145.789 161.73 152.117 169.035L172.305 169.027C171.703 158.008 156.469 142.883 143.555 138.297C128.172 132.836 104.074 134.926 86.0742 134.926C64.9297 134.926 50.1289 133.754 35.6016 144.422C25.4883 151.848 15.0625 165.73 15.0625 184.363C15.0586 202.891 25.0156 216.223 35.1016 223.961C49.5273 235.031 64.7891 233.801 86.0742 233.801C113.629 233.801 142.523 238.57 161.457 218.848C164.359 215.82 171.992 205.695 172.309 199.691Z" fill="#213952"/>
<path fill-rule="evenodd" clip-rule="evenodd" d="M128.984 176.445C124.062 178.043 120.508 183.699 124.336 189.187C127.379 193.559 133.648 192.727 140.191 192.719C158.543 192.699 254.332 193.613 258.793 192.117C262.961 190.719 266.246 185.363 263.043 179.984C260.16 175.145 254.543 175.992 247.582 176.008C229.359 176.047 132.996 175.145 128.984 176.445Z" fill="#213952"/>
<path fill-rule="evenodd" clip-rule="evenodd" d="M353.859 323.855C333.027 329.574 340.781 360.844 362.207 355.73C383.531 350.645 375.234 317.992 353.859 323.855Z" fill="#213952"/>
<path fill-rule="evenodd" clip-rule="evenodd" d="M19.3125 324.031C-2.54293 330.73 7.76957 361.902 28.8204 355.504C48.8594 349.406 40.2071 317.629 19.3125 324.031Z" fill="#213952"/>
<path fill-rule="evenodd" clip-rule="evenodd" d="M186.574 323.934C165.309 330 174.133 361.375 195.516 355.625C203.02 353.605 209.309 345.535 207.109 335.898C205.293 327.945 196.512 321.098 186.574 323.934Z" fill="#213952"/>
<path fill-rule="evenodd" clip-rule="evenodd" d="M353.957 13.0977C333.051 18.6875 340.648 50.0352 362.25 44.957C370.078 43.1172 376.766 34.6172 374.211 24.5742C372.223 16.7461 363.492 10.5469 353.957 13.0977Z" fill="#213952"/>
<path fill-rule="evenodd" clip-rule="evenodd" d="M19.4141 13.2656C-3.02733 20.2266 8.10939 50.875 28.7969 44.668C48.9961 38.6094 40.0313 6.86718 19.4141 13.2656Z" fill="#213952"/>
<path fill-rule="evenodd" clip-rule="evenodd" d="M186.672 13.1758C165.277 19.3516 174.117 50.5703 195.559 44.8438C202.984 42.8594 209.293 34.6367 207.098 25.0938C205.281 17.207 196.504 10.3359 186.672 13.1758Z" fill="#213952"/>
<path fill-rule="evenodd" clip-rule="evenodd" d="M355.587 320.214C376.962 314.347 385.259 346.999 363.934 352.089C342.509 357.199 334.755 325.933 355.587 320.214ZM21.0393 320.39C41.9339 313.984 50.5863 345.765 30.5472 351.859C9.49634 358.257 -0.816174 327.085 21.0393 320.39ZM188.301 320.292C198.239 317.457 207.02 324.304 208.836 332.253C211.036 341.89 204.747 349.964 197.243 351.98C175.86 357.73 167.036 326.359 188.301 320.292ZM134.309 236.851C140.207 236.851 147.297 234.218 151.508 232.113C163.77 225.976 174.395 216.566 179.622 203.832C180.403 201.929 180.383 201.39 181.223 199.554C183.329 194.961 183.797 196.64 201.11 196.64C204.926 196.64 203.305 201.492 209.211 210.394C212.661 215.586 215.106 218.652 219.485 222.836C225.344 228.433 239.977 236.851 251.001 236.851L214.911 294.089C212.747 297.722 210.809 300.312 208.68 303.835C207.055 306.523 203.649 310.785 202.801 313.929C197.684 313.507 200.805 312.253 190.965 312.253C186.688 312.253 186.473 313.601 182.508 313.929C181.704 310.941 178.676 307.16 176.946 304.359L134.309 236.851ZM130.711 172.804C134.723 171.504 231.087 172.402 249.309 172.363C256.27 172.347 261.887 171.5 264.77 176.339C267.973 181.718 264.688 187.074 260.52 188.476C256.059 189.972 160.27 189.054 141.918 189.078C135.375 189.086 129.11 189.918 126.063 185.547C122.235 180.058 125.789 174.398 130.711 172.804ZM256.919 158.101H321.184C326.759 158.101 332.536 161.992 335.384 164.98C343.618 173.632 343.618 187.808 335.384 196.461C332.536 199.449 326.759 203.339 321.184 203.339H256.919C250.454 203.339 244.227 200.375 241.7 196.64C249.016 196.64 258.505 197.55 263.938 195.214C276.301 189.898 277.036 172.574 264.512 166.496C259.192 163.914 249.473 164.804 241.7 164.804C242.7 163.449 246.036 160.914 247.864 160.015C250.344 158.797 253.462 158.101 256.919 158.101ZM117.395 178.207C117.395 196.164 127.68 196.64 143.61 196.64C140.532 200.8 134.282 203.339 128.391 203.339H64.1214C58.5511 203.339 52.7738 199.449 49.9261 196.461C35.7815 181.597 48.0042 158.101 64.1214 158.101H128.391C134.282 158.101 140.532 160.644 143.61 164.804C136.039 164.804 131.547 164.011 126.11 166.73C122.133 168.718 117.395 172.824 117.395 178.207ZM211.27 165.39C211.618 159.215 219.102 149.371 222.11 146.218C240.907 126.554 270.223 131.285 297.508 131.285C318.762 131.285 334.016 130.074 348.466 141.136C358.419 148.757 368.52 162.34 368.52 180.718C368.52 199.093 358.052 213.507 347.989 220.668C332.462 231.722 319.669 230.16 297.508 230.16C279.719 230.16 255.083 232.285 240.012 226.796C227.087 222.086 211.848 207.078 211.27 196.046L231.462 196.054C237.801 203.261 242.743 210.609 257.735 210.992C271.098 211.328 284.938 211 298.356 211C312.016 211 324.219 212.648 334.571 206.546C354.235 194.961 353.731 165.644 334.024 154.59C323.61 148.75 310.782 150.441 297.508 150.441C284.255 150.441 270.016 149.949 256.883 150.476C242.532 151.05 237.567 158.379 231.462 165.39H211.27ZM174.036 196.05C173.719 202.054 166.086 212.179 163.184 215.203C144.25 234.925 115.36 230.16 87.8012 230.16C66.516 230.16 51.2581 231.39 36.8284 220.316C26.7425 212.582 16.7893 199.246 16.7893 180.718C16.7893 162.09 27.2151 148.203 37.3284 140.777C51.8558 130.109 66.6566 131.285 87.8012 131.285C105.801 131.285 129.903 129.195 145.282 134.656C158.196 139.238 173.43 154.367 174.032 165.386L153.844 165.39C147.516 158.09 142.524 150.843 127.579 150.453C114.223 150.101 100.364 150.441 86.9535 150.441C73.1332 150.441 61.223 148.765 50.7347 154.89C31.3089 166.234 31.3323 195.757 51.2698 206.863C61.7464 212.699 74.4652 211 87.8012 211C101.067 211 115.278 211.488 128.426 210.968C142.829 210.402 147.696 202.906 153.836 196.05H174.036ZM182.508 47.5115C187.626 47.9373 184.504 49.1873 194.344 49.1873C198.622 49.1873 198.836 47.8396 202.801 47.5115C203.579 50.3982 206.614 54.4451 208.387 57.0584C213.157 64.0935 250.227 121.715 251.001 124.59C234.415 124.59 218.04 137.906 209.551 150.547C208.001 152.859 206.938 154.558 205.688 157.609C201.926 166.781 206.985 164.804 184.2 164.804C181.512 164.804 181.926 163.429 179.86 158.211C177.223 151.547 171.04 143.207 165.801 138.629C159.29 132.937 145.997 124.59 134.309 124.59C135.086 121.703 138.122 117.656 139.895 115.043L152.028 96.0661C156.208 89.1443 181.594 50.8943 182.508 47.5115ZM355.688 9.45294C365.22 6.90607 373.95 13.1053 375.942 20.9295C378.493 30.9725 371.809 39.4724 363.977 41.3162C342.376 46.3904 334.778 15.0428 355.688 9.45294ZM21.1409 9.62091C41.7581 3.22639 50.723 34.9685 30.5237 41.0271C9.8401 47.2303 -1.29664 16.5818 21.1409 9.62091ZM188.403 9.53498C198.235 6.69514 207.008 13.5623 208.825 21.449C211.02 30.992 204.711 39.2185 197.286 41.199C175.844 46.9256 167.008 15.7108 188.403 9.53498ZM1.54712 23.2186C1.54712 41.9295 12.5237 49.1873 31.1448 49.1873C34.5706 63.7576 59.9964 115.734 60.7425 124.59C48.848 124.59 39.805 129.625 31.4847 135.816C-2.36695 160.996 4.42603 211.046 39.6136 230.972C42.0277 232.339 46.0823 233.843 49.1995 234.882C53.3441 236.265 55.4691 236.851 60.7425 236.851C60.3011 242.086 42.0159 284.484 38.6331 292.863C36.2151 298.859 32.6565 305.816 31.1448 312.253C21.3831 312.253 16.3245 312.964 10.7073 317.136C-0.820069 325.707 -1.19116 343.828 8.91041 353.55C32.5354 376.288 69.141 336.324 37.9105 315.605C44.0745 302.874 58.887 263.636 65.2113 247.984C66.5081 244.777 68.4808 240.738 69.1957 237.691H125.008C133.848 250.769 141.84 264.125 150.723 277.558C152.981 280.968 154.793 283.902 156.868 287.386L176.586 318.117C171.918 325.027 164.903 331.312 170.137 344.613C182.817 376.816 230.657 353.234 213.251 323.683C211.559 320.808 210.407 320.609 208.723 318.117L218.184 303.199C219.403 301.32 220.372 300.07 221.571 298.175C225.93 291.269 229.813 284.917 234.251 278.062L260.301 237.691H316.114C316.809 240.656 318.575 244.211 319.856 247.386L347.399 315.605C334.665 324.05 331.544 340.39 341.989 351.964C343.075 353.167 342.47 352.499 343.243 353.234C352.157 361.734 367.407 362.206 376.399 353.55C386.419 343.906 386.083 326.347 375.083 317.499C369.583 313.078 363.946 312.253 354.165 312.253C350.739 297.683 325.313 245.707 324.567 236.851C352.493 236.851 376.149 207.941 376.149 180.722C376.149 165.273 368.716 150.199 360.727 142.386C350.833 132.707 339.973 124.59 324.567 124.59C325.044 118.933 336.36 94.1247 339.188 87.1287C341.809 80.6365 344.095 74.9724 346.677 68.5779C347.907 65.5232 349.149 62.4451 350.54 59.0037C351.938 55.5388 353.317 52.7927 354.165 49.1873C363.778 49.1873 369.052 48.4138 374.61 44.3123C397.177 27.6521 375.708 -8.30485 349.067 3.9256C331.899 11.8045 331.614 35.367 347.399 45.8396C341.302 58.4295 336.993 71.617 331.696 84.7341C328.555 92.5076 317.88 116.242 316.114 123.75H260.301C255.876 117.203 251.989 110.472 247.45 103.812C245.231 100.558 243.344 97.5232 241.212 94.074C238.809 90.1872 236.93 87.6091 234.665 83.8044C232.45 80.0857 230.657 77.7771 228.438 74.0544L208.723 43.324C213.391 36.4139 220.407 30.1287 215.172 16.8279C202.493 -15.3751 154.653 8.20686 172.059 37.7576C173.751 40.6326 174.903 40.8318 176.586 43.324C158.793 69.6521 142.793 97.4372 125.008 123.75H69.1957C67.7543 117.617 63.9457 110.32 61.5863 104.484C55.8753 90.3435 44.0472 58.5115 37.9105 45.8396C41.7542 43.2888 43.1214 41.8162 45.8909 37.8279C52.0511 28.949 49.5198 15.9764 42.9183 9.04279C28.4573 -6.14469 1.54712 3.53108 1.54712 23.2186Z" fill="#659DC4" stroke="black" stroke-width="1.41861" stroke-miterlimit="22.9256"/>
<path fill-rule="evenodd" clip-rule="evenodd" d="M211.27 165.391H231.461C237.566 158.379 242.531 151.051 256.883 150.477C270.016 149.949 284.254 150.441 297.508 150.441C310.781 150.441 323.609 148.75 334.023 154.59C353.73 165.645 354.234 194.961 334.57 206.547C324.219 212.648 312.016 211 298.355 211C284.938 211 271.098 211.328 257.734 210.992C242.742 210.609 237.801 203.262 231.461 196.055L211.27 196.047C211.848 207.078 227.086 222.086 240.012 226.797C255.082 232.285 279.719 230.16 297.508 230.16C319.668 230.16 332.461 231.723 347.988 220.668C358.051 213.508 368.52 199.094 368.52 180.719C368.52 162.34 358.418 148.758 348.465 141.137C334.016 130.074 318.762 131.285 297.508 131.285C270.223 131.285 240.906 126.555 222.109 146.219C219.102 149.371 211.617 159.215 211.27 165.391Z" fill="#82DAF1"/>
<path fill-rule="evenodd" clip-rule="evenodd" d="M174.035 196.051H153.836C147.695 202.906 142.828 210.402 128.426 210.969C115.277 211.488 101.066 211 87.8008 211C74.4648 211 61.7461 212.699 51.2695 206.863C31.332 195.758 31.3086 166.234 50.7344 154.891C61.2227 148.766 73.1328 150.441 86.9531 150.441C100.363 150.441 114.223 150.102 127.578 150.453C142.523 150.844 147.516 158.09 153.844 165.391L174.031 165.387C173.43 154.367 158.195 139.238 145.281 134.656C129.902 129.195 105.801 131.285 87.8008 131.285C66.6562 131.285 51.8555 130.109 37.3281 140.777C27.2148 148.203 16.7891 162.09 16.7891 180.719C16.7891 199.246 26.7422 212.582 36.8281 220.316C51.2578 231.391 66.5156 230.16 87.8008 230.16C115.359 230.16 144.25 234.926 163.184 215.203C166.086 212.18 173.719 202.055 174.035 196.051Z" fill="#82DAF1"/>
<path fill-rule="evenodd" clip-rule="evenodd" d="M130.711 172.805C125.789 174.398 122.234 180.059 126.062 185.547C129.109 189.918 135.375 189.086 141.918 189.078C160.27 189.055 256.059 189.973 260.52 188.477C264.688 187.074 267.973 181.719 264.77 176.34C261.887 171.5 256.27 172.348 249.309 172.363C231.086 172.402 134.723 171.504 130.711 172.805Z" fill="#82DAF1"/>
<path fill-rule="evenodd" clip-rule="evenodd" d="M355.586 320.215C334.754 325.934 342.508 357.199 363.934 352.09C385.258 347 376.961 314.348 355.586 320.215Z" fill="#E5E6E7"/>
<path fill-rule="evenodd" clip-rule="evenodd" d="M21.0391 320.391C-0.816364 327.086 9.49614 358.258 30.5469 351.859C50.586 345.766 41.9336 313.984 21.0391 320.391Z" fill="#E5E6E7"/>
<path fill-rule="evenodd" clip-rule="evenodd" d="M188.301 320.293C167.035 326.359 175.859 357.731 197.242 351.981C204.746 349.965 211.035 341.891 208.836 332.254C207.02 324.305 198.238 317.457 188.301 320.293Z" fill="#E5E6E7"/>
<path fill-rule="evenodd" clip-rule="evenodd" d="M355.688 9.45313C334.777 15.043 342.375 46.3906 363.977 41.3164C371.809 39.4727 378.492 30.9727 375.941 20.9297C373.949 13.1055 365.219 6.90625 355.688 9.45313Z" fill="#E5E6E7"/>
<path fill-rule="evenodd" clip-rule="evenodd" d="M21.1407 9.6211C-1.29684 16.582 9.83988 47.2305 30.5235 41.0273C50.7227 34.9688 41.7579 3.22656 21.1407 9.6211Z" fill="#E5E6E7"/>
<path fill-rule="evenodd" clip-rule="evenodd" d="M188.402 9.53516C167.008 15.7109 175.844 46.9258 197.285 41.1992C204.711 39.2188 211.02 30.9922 208.824 21.4492C207.008 13.5625 198.234 6.69531 188.402 9.53516Z" fill="#E5E6E7"/>
</svg>
