<svg width="596" height="842" viewBox="0 0 596 842" fill="none" xmlns="http://www.w3.org/2000/svg">
<path fill-rule="evenodd" clip-rule="evenodd" d="M290.62 541.8C288.99 535.84 289.91 480.19 289.91 466.25C289.91 458.92 288.39 447.37 291.57 442.33C300.01 440.91 297.72 451.06 297.72 464.65V522.32C297.72 530.99 300.73 546.36 290.62 541.8ZM297.15 423C296.08 424.95 289.92 428.23 289.87 418.24C289.82 410.19 289.34 368.07 290.55 365.93C291.59 364.09 297.69 360.96 297.75 370.89C297.8 378.69 298.15 421.18 297.15 423ZM295.64 218.46C308.46 216.68 318.48 226.51 320.03 237.57C321.86 250.65 311.95 260.98 300.82 262.46C272.37 266.25 265.31 222.66 295.64 218.46ZM299.94 556.36C303.77 561.25 300.88 575.59 301.95 583.03L323.13 582.97L323.45 562.86C328.05 558.46 334.27 553.48 339.25 549.15C341.18 547.48 346.03 543.52 346.44 541.34C346.83 539.23 346.53 529.38 346.38 526.79C339.86 525.37 329.91 527.63 324.29 525.59C322.48 521.2 322.98 506.55 323.61 500.7C325.44 498.2 330.36 494.2 333.22 491.94C336.82 489.09 340.04 486.5 343.41 483.25C337.82 479.83 328.42 475.39 323.77 471.69C322.94 466.64 322.19 449.62 324.31 446.23C327.27 442.28 337.34 446.15 346.39 444.18L346.48 419L324.97 397.59C322.17 394.3 323.4 374.83 323.37 369.33C323.29 353.39 322.84 365.45 347.04 348.72C367.12 334.85 387.99 306.86 383.98 269.53C376.59 200.9 299.37 168.66 245.15 209.27C209.98 235.61 197.88 289.63 230.46 331.78L237.46 339.26C246 347.08 251.3 352.2 264.29 357.31C274.6 361.36 272.52 359.79 272.52 378.14L272.54 554.25C273.71 558.28 290.63 553.74 299.94 556.36Z" fill="#63D3FC"/>
<path fill-rule="evenodd" clip-rule="evenodd" d="M425.39 436.3C425.61 436.23 425.82 436.01 425.98 435.94L427.26 435.36C427.77 435.22 428.18 435.16 428.76 435.1C431.39 434.86 434.4 435.75 436.65 437.07C439.45 438.7 441.21 441.12 442.32 444.97C447.27 462.2 421.11 468.67 416.43 452.41C414.78 446.7 416.86 441.24 421.1 437.96C423.86 435.82 425.39 436.3 425.39 436.3ZM186.73 436.37C186.73 436.37 187.82 434.5 193.04 435.25C194.86 435.52 196.32 436.19 197.68 437.05C208.7 444.07 204.49 458.25 195.02 461.23C185.74 464.15 179.68 458.41 177.85 452.02C176.79 448.31 177.61 444.71 179.23 441.49C182.23 435.56 185.59 436.72 186.73 436.37ZM300.11 556.63C290.8 554 273.88 558.54 272.71 554.51L272.69 378.4C272.69 360.05 274.77 361.61 264.46 357.57C251.46 352.46 246.16 347.34 237.63 339.52L230.63 332.04C198.04 289.89 210.14 235.87 245.32 209.53C299.54 168.92 376.76 201.16 384.14 269.79C388.16 307.11 367.28 335.11 347.21 348.98C323 365.71 323.46 353.64 323.54 369.59C323.56 375.09 322.34 394.55 325.13 397.84L346.64 419.25L346.56 444.45C337.51 446.41 327.44 442.54 324.48 446.49C322.36 449.88 323.1 466.9 323.93 471.95C328.58 475.65 337.98 480.09 343.57 483.51C340.2 486.76 336.98 489.35 333.38 492.2C330.53 494.45 325.6 498.46 323.78 500.96C323.15 506.81 322.64 521.46 324.46 525.85C330.07 527.89 340.03 525.63 346.54 527.05C346.7 529.64 347 539.49 346.61 541.6C346.2 543.78 341.34 547.74 339.42 549.41C334.43 553.75 328.22 558.71 323.62 563.12L323.29 583.23L302.12 583.29C301.04 575.84 303.93 561.51 300.11 556.63ZM204.3 273.47C204.3 298.49 208.64 315.54 223.53 335.16C231.89 346.18 253.76 364.63 265.23 365.59V444.89H211.51C205.5 419.09 169.82 422.73 169.82 449.69C169.82 455.05 173.13 460.67 176 463.55C186.75 474.35 207.17 470.7 211.51 452.09H265.23V558.63C265.23 561.09 265.97 563.44 268.43 563.44H294.09C294.09 571.27 293.2 582.64 294.89 589.87C302.34 591.61 319.2 590.67 327.76 590.67C332.14 590.67 330.98 584.74 330.97 580.26C330.95 575.72 330.96 571.18 330.96 566.64C335.99 563.28 345.61 553.36 349.28 550.49C356.56 544.81 354.21 543.21 354.21 522.59C354.21 517.33 342.47 519.38 330.96 519.38V504.16C332.42 503.19 332.25 503.11 333.61 502L345.39 492.14C353.45 486.08 358.1 482.98 350.27 478.47L330.96 467.32V452.09H408.73C412.94 470.15 432.65 474.52 443.84 463.95C464.19 444.72 434.56 414.18 415.73 432.65C411.56 436.73 410.24 438.43 408.73 444.89H354.21V418.45C354.21 414.16 347.92 409.36 343.59 405.04C339.5 400.95 336.09 396.33 330.96 393.62V365.59C343.3 364.56 368.64 343.04 376.13 330.61C389.37 308.64 391.89 299.31 391.89 271.87C391.89 259.93 386.62 244.78 382.56 236.34C379.1 229.15 371.83 219.27 366.45 213.19L357.2 204.8C351.92 200.31 341.95 194.53 335.78 191.76C318.89 184.18 296.51 181.59 278.04 186.14C275.25 186.83 271.57 187.63 269.12 188.45C267.27 189.07 266.64 189.48 265.11 190.05C252.93 194.57 242.56 201.54 232.95 209.98C228.15 214.21 216.41 229.97 213.66 236.37C209.17 246.84 204.3 258.91 204.3 273.47Z" fill="#132C3D"/>
<path fill-rule="evenodd" clip-rule="evenodd" d="M121.91 489.19C138.43 483.36 145.95 509.73 129.91 514.62C112.77 519.85 104.05 495.5 121.91 489.19ZM193.71 497.49H146.41C143.61 491.67 139.33 480.67 126.36 480.67C114.74 480.67 104.72 489.96 104.72 499.9C104.72 509.96 107.83 516.7 117.11 521.16C128.57 526.68 143.01 520.07 146.41 505.5H196.91L213.94 488.07L245.03 487.89C250.48 487.94 250.19 488.21 253.84 486.28C253.84 483.71 254.4 479.87 250.63 479.87H213.75C209.38 479.87 196.18 493.81 193.71 497.49Z" fill="#132C3D"/>
<path fill-rule="evenodd" clip-rule="evenodd" d="M490.17 489.14C507.41 483.73 514.69 509.52 498.64 514.57C480.99 520.13 473.6 494.34 490.17 489.14ZM366.07 483.07V486.28C369.73 488.21 369.43 487.94 374.88 487.89L406.16 487.88L423.18 505.32L473.5 505.5C474.73 510.79 476.59 514.07 480.1 517.34C494.6 530.86 515.2 517.89 515.2 503.9C515.2 496.41 514.68 492.13 508.6 486.46C500.8 479.18 488.96 478.54 480.51 486.07C475.59 490.47 476.24 491.8 473.5 497.49H426.2C423.69 493.75 410.49 479.87 406.16 479.87H369.28C367.41 479.87 366.07 481.2 366.07 483.07Z" fill="url(#paint0_linear_1_2)"/>
<path fill-rule="evenodd" clip-rule="evenodd" d="M490.31 381.88C498.39 379.12 505.34 384.75 507.18 390.95C509.29 398 504.18 405.62 498.88 407.34C481.75 412.88 472.93 387.82 490.31 381.88ZM473.5 390.96H423L405.97 408.39L374.88 408.57C369.43 408.53 369.73 408.25 366.07 410.18C366.07 412.75 365.51 416.59 369.28 416.59H406.16C410.55 416.59 424.51 401.89 427.01 398.17H473.5C479.83 425.3 515.2 417.38 515.2 396.57V392.56C515.2 371.75 479.83 363.83 473.5 390.96Z" fill="url(#paint1_linear_1_2)"/>
<path fill-rule="evenodd" clip-rule="evenodd" d="M121.98 381.93C138.66 376.95 146.03 401.72 129.89 407.28C118.91 411.07 107.56 400.49 114.05 387.46C116.05 383.46 117.16 383.37 121.98 381.93ZM104.72 392.56V396.57C104.72 417.38 140.08 425.3 146.41 398.17H192.91C195.45 401.96 209.42 416.59 213.75 416.59H250.63C254.4 416.59 253.84 412.75 253.84 410.18C248.92 407.58 242.57 408.58 234.59 408.58C227.65 408.58 220.7 408.58 213.75 408.58L196.73 391.14L146.41 390.96C145.13 385.47 143.14 382.07 139.4 378.73C125.18 366.05 104.72 378.25 104.72 392.56Z" fill="#132C3D"/>
<path fill-rule="evenodd" clip-rule="evenodd" d="M287.88 239.93C287.88 222.73 312.39 222.49 312.39 239.93C312.39 255.29 287.88 255.29 287.88 239.93ZM298.19 220.64C272.44 224.21 278.43 261.22 302.59 258.01C312.05 256.75 320.45 247.98 318.9 236.88C317.59 227.48 309.07 219.13 298.19 220.64Z" fill="#132C3D"/>
<path fill-rule="evenodd" clip-rule="evenodd" d="M297.149 423C298.149 421.179 297.797 378.691 297.751 370.89C297.692 360.965 291.59 364.086 290.551 365.925C289.344 368.07 289.825 410.187 289.872 418.238C289.922 428.234 296.079 424.949 297.149 423Z" fill="#FDFEFF" stroke="black" stroke-width="1.41861" stroke-miterlimit="22.93"/>
<path fill-rule="evenodd" clip-rule="evenodd" d="M123.58 389.42C131.05 386.08 134.32 397.36 128.04 399.86C124.05 401.44 121.17 399.6 120.2 397.02C118.21 391.69 121.49 390.36 123.58 389.42ZM121.98 381.93C117.16 383.37 116.05 383.46 114.05 387.46C107.56 400.49 118.91 411.07 129.89 407.28C146.03 401.72 138.66 376.95 121.98 381.93Z" fill="#63D3FC"/>
<path fill-rule="evenodd" clip-rule="evenodd" d="M427.67 442.63C435.24 440.79 437.81 451.29 431.22 453.73C423.28 456.68 419.96 444.5 427.67 442.63ZM425.23 436.04C425.23 436.05 423.69 435.56 420.93 437.7C416.7 440.98 414.62 446.45 416.26 452.15C420.94 468.41 447.1 461.94 442.15 444.71C441.04 440.86 439.28 438.44 436.48 436.81C434.23 435.5 431.23 434.6 428.59 434.84C428.01 434.9 427.61 434.96 427.09 435.1L425.82 435.68C425.66 435.75 425.45 435.97 425.23 436.04Z" fill="#63D3FC"/>
<path fill-rule="evenodd" clip-rule="evenodd" d="M195.49 444.19C198.85 455.66 188.58 455.66 185.82 451.69C181.96 446.16 187.65 439.57 195.49 444.19ZM186.56 436.11C185.43 436.46 182.07 435.3 179.07 441.23C177.45 444.45 176.63 448.05 177.69 451.76C179.52 458.15 185.57 463.89 194.86 460.97C204.32 457.99 208.53 443.81 197.51 436.79C196.16 435.93 194.69 435.26 192.87 434.99C187.66 434.24 186.56 436.11 186.56 436.11Z" fill="#63D3FC"/>
<path fill-rule="evenodd" clip-rule="evenodd" d="M123.52 496.71C131.14 493.31 134.31 504.66 128.01 507.16C124.03 508.73 121.19 506.9 120.21 504.34C118.29 499.31 121.08 497.79 123.52 496.71ZM121.91 489.19C104.05 495.5 112.77 519.85 129.91 514.62C145.95 509.73 138.43 483.36 121.91 489.19Z" fill="#63D3FC"/>
<path fill-rule="evenodd" clip-rule="evenodd" d="M488.73 503.9C486.3 495.23 497.56 493.73 499.63 499.48C502.73 508.1 490.57 510.48 488.73 503.9ZM490.17 489.14C473.6 494.34 480.99 520.13 498.64 514.57C514.69 509.52 507.41 483.73 490.17 489.14Z" fill="#63D3FC"/>
<path fill-rule="evenodd" clip-rule="evenodd" d="M492.7 389C500.18 387.02 503.12 398.07 496.21 400.12C488.08 402.54 485.17 391 492.7 389ZM490.31 381.88C472.93 387.82 481.75 412.88 498.88 407.34C504.18 405.62 509.29 398 507.18 390.95C505.34 384.75 498.39 379.12 490.31 381.88Z" fill="#63D3FC"/>
<path fill-rule="evenodd" clip-rule="evenodd" d="M488.73 503.9C490.57 510.48 502.73 508.1 499.63 499.48C497.56 493.73 486.3 495.23 488.73 503.9Z" fill="#FDFEFF"/>
<path fill-rule="evenodd" clip-rule="evenodd" d="M427.67 442.63C419.96 444.5 423.28 456.68 431.22 453.73C437.81 451.29 435.24 440.79 427.67 442.63Z" fill="#FDFEFF"/>
<path fill-rule="evenodd" clip-rule="evenodd" d="M492.7 389C485.17 391 488.08 402.54 496.21 400.12C503.12 398.07 500.18 387.02 492.7 389Z" fill="#FDFEFF"/>
<path fill-rule="evenodd" clip-rule="evenodd" d="M123.52 496.71C121.08 497.79 118.29 499.31 120.21 504.34C121.19 506.9 124.03 508.73 128.01 507.16C134.31 504.66 131.14 493.31 123.52 496.71Z" fill="#FDFEFF"/>
<path fill-rule="evenodd" clip-rule="evenodd" d="M123.58 389.42C121.49 390.36 118.21 391.69 120.2 397.02C121.17 399.6 124.05 401.44 128.04 399.86C134.32 397.36 131.05 386.08 123.58 389.42Z" fill="#FDFEFF"/>
<path fill-rule="evenodd" clip-rule="evenodd" d="M195.49 444.19C187.65 439.57 181.96 446.16 185.82 451.69C188.58 455.66 198.85 455.66 195.49 444.19Z" fill="#FDFEFF"/>
<path fill-rule="evenodd" clip-rule="evenodd" d="M422.26 433.78C422.48 433.71 422.69 433.49 422.84 433.42L424.12 432.84C424.63 432.7 425.04 432.63 425.63 432.58C428.25 432.34 431.26 433.23 433.51 434.54C436.3 436.17 438.07 438.59 439.18 442.45C444.13 459.68 417.97 466.14 413.29 449.89C411.64 444.18 413.73 438.72 417.96 435.43C420.71 433.3 422.25 433.78 422.26 433.78ZM183.59 433.84C183.59 433.84 184.68 431.97 189.89 432.73C191.72 432.99 193.18 433.66 194.54 434.53C205.56 441.55 201.35 455.73 191.88 458.71C182.6 461.63 176.54 455.89 174.71 449.5C173.65 445.79 174.47 442.19 176.1 438.97C179.09 433.04 182.46 434.2 183.59 433.84ZM296.97 554.1C287.66 551.48 270.74 556.02 269.57 551.99L269.55 375.88C269.55 357.52 271.63 359.09 261.32 355.04C248.33 349.94 243.03 344.82 234.49 336.99L227.48 329.52C194.91 287.37 207.01 233.35 242.18 207C296.4 166.4 373.62 198.64 381 267.27C385.02 304.59 364.14 332.58 344.07 346.46C319.86 363.19 320.32 351.12 320.4 367.07C320.43 372.57 319.2 392.03 322 395.32L343.5 416.73L343.42 441.92C334.37 443.89 324.3 440.02 321.34 443.97C319.22 447.36 319.96 464.38 320.8 469.43C325.45 473.13 334.84 477.57 340.43 480.99C337.06 484.24 333.85 486.82 330.25 489.67C327.39 491.93 322.46 495.94 320.64 498.43C320.02 504.29 319.5 518.94 321.32 523.32C326.94 525.37 336.89 523.1 343.41 524.52C343.56 527.11 343.86 536.96 343.47 539.07C343.06 541.25 338.2 545.22 336.28 546.89C331.3 551.22 325.08 556.19 320.48 560.6L320.16 580.7L298.98 580.77C297.9 573.32 300.8 558.99 296.97 554.1ZM201.16 270.95C201.16 295.96 205.51 313.02 220.39 332.63C228.75 343.66 250.63 362.11 262.09 363.06V442.36H208.38C202.36 416.57 166.68 420.21 166.68 447.17C166.68 452.53 170 458.15 172.86 461.02C183.62 471.83 204.04 468.18 208.38 449.57H262.09V556.11C262.09 558.57 262.83 560.91 265.3 560.91H290.95C290.95 568.75 290.07 580.12 291.75 587.35C299.2 589.08 316.07 588.15 324.62 588.15C329.01 588.15 327.84 582.22 327.83 577.73C327.82 573.2 327.83 568.66 327.83 564.12C332.86 560.75 342.47 550.83 346.14 547.97C353.43 542.29 351.08 540.68 351.08 520.06C351.08 514.81 339.34 516.86 327.83 516.86V501.64C329.28 500.66 329.11 500.59 330.48 499.48L342.26 489.62C350.31 483.56 354.96 480.46 347.13 475.95L327.83 464.79V449.57H405.59C409.8 467.63 429.52 472 440.7 461.42C461.05 442.2 431.43 411.66 412.59 430.13C408.43 434.21 407.1 435.91 405.59 442.36H351.08V415.93C351.08 411.63 344.78 406.84 340.46 402.51C336.37 398.43 332.96 393.81 327.83 391.1V363.06C340.16 362.04 365.5 340.52 372.99 328.09C386.23 306.12 388.76 296.79 388.76 269.34C388.76 257.41 383.48 242.26 379.42 233.82C375.96 226.63 368.69 216.75 363.31 210.67L354.06 202.29C348.78 197.79 338.81 192.01 332.64 189.24C315.75 181.66 293.37 179.07 274.9 183.62C272.11 184.31 268.43 185.1 265.98 185.93C264.14 186.55 263.5 186.96 261.97 187.53C249.79 192.05 239.43 199.02 229.82 207.46C225.01 211.68 213.27 227.45 210.53 233.85C206.04 244.32 201.16 256.39 201.16 270.95Z" fill="url(#paint2_linear_1_2)"/>
<path d="M422.55 432.77L423.14 434.07H423.13L423.14 434.06H423.15L423.14 434.07H423.13L423.11 434.09H423.1L423.09 434.11L423.07 434.12L423.03 434.14L422.99 434.17L422.95 434.2L422.93 434.22L422.9 434.23L422.88 434.25L422.84 434.27L422.82 434.29L422.79 434.31L422.75 434.33L422.72 434.35L422.69 434.37L422.65 434.39L422.61 434.4L422.57 434.42L422.53 434.44L422.48 434.45L422.04 433.11V433.1H422.05L422.07 433.08H422.08L422.09 433.07L422.13 433.05L422.14 433.04L422.15 433.03L422.19 433L422.23 432.97L422.25 432.96L422.27 432.95L422.29 432.93L422.31 432.91L422.34 432.9L422.36 432.88L422.39 432.86L422.42 432.84L422.45 432.83L422.48 432.81L422.52 432.79L422.56 432.77H422.55ZM424.41 433.48L423.14 434.07L422.55 432.77L423.83 432.2L423.93 432.16L424.41 433.48ZM423.83 432.2L423.88 432.17L423.93 432.16L423.83 432.2ZM425.56 431.88L425.69 433.29H425.64L425.59 433.3H425.54H425.49L425.44 433.31L425.35 433.32L425.3 433.33H425.26L425.21 433.34H425.17L425.13 433.35L425.09 433.36H425.05L425 433.37L424.96 433.38H424.92L424.73 433.42L424.68 433.43L424.64 433.44L424.61 433.45L424.57 433.46L424.52 433.47L424.48 433.48L424.44 433.49L424.4 433.5L424.35 433.51L424.31 433.52L423.93 432.16L423.98 432.14L424.04 432.13L424.09 432.11L424.14 432.1L424.18 432.09L424.34 432.05L424.38 432.04H424.43L424.48 432.02L424.53 432.01L424.58 432H424.63L424.68 431.98H424.73L424.78 431.97L424.82 431.96L424.93 431.95L424.97 431.94L425.07 431.93L425.13 431.92L425.18 431.91H425.23L425.29 431.9L425.34 431.89H425.39L425.45 431.88H425.5H425.56ZM433.87 433.93L433.15 435.16L432.95 435.04L432.75 434.93L432.54 434.82L432.32 434.71L432.1 434.6L431.88 434.5L431.66 434.4L431.43 434.3L431.2 434.21L430.96 434.12L430.73 434.04L430.49 433.95L430.25 433.88L430.01 433.8L429.77 433.73L429.53 433.66L429.29 433.6L429.04 433.55L428.8 433.49L428.55 433.45L428.31 433.4L428.06 433.36L427.82 433.33L427.58 433.3L427.34 433.28L427.09 433.27L426.86 433.25H426.62H426.38H426.15L425.92 433.27L425.69 433.29L425.56 431.88L425.82 431.85L426.09 431.84L426.36 431.83H426.63L426.9 431.84L427.45 431.87L427.72 431.89L427.99 431.93L428.27 431.96L428.54 432L428.81 432.05L429.35 432.16L429.89 432.29L430.16 432.36L430.42 432.44L430.69 432.52L430.95 432.61L431.21 432.7L431.46 432.79L431.72 432.89L431.97 433L432.22 433.1L432.46 433.21L432.71 433.32L432.95 433.44L433.42 433.68L433.64 433.8L433.87 433.93ZM439.86 442.26L438.5 442.65L438.39 442.3L438.29 441.96L438.18 441.63L438.07 441.31L437.95 441L437.83 440.7L437.7 440.4L437.57 440.11L437.44 439.83L437.3 439.56L437.16 439.3L437.02 439.04L436.87 438.79L436.72 438.54L436.56 438.31L436.4 438.08L436.24 437.85L436.07 437.64L435.89 437.42L435.71 437.22L435.53 437.02L435.34 436.82L435.14 436.64L434.95 436.45L434.74 436.27L434.53 436.1L434.32 435.93L434.1 435.77L433.87 435.61L433.64 435.45L433.4 435.3L433.15 435.16L433.87 433.93L434.14 434.09L434.41 434.27L434.67 434.44L434.93 434.62L435.18 434.8L435.42 435L435.66 435.19L435.89 435.39L436.12 435.61L436.34 435.82L436.56 436.04L436.77 436.27L436.97 436.51L437.17 436.75L437.37 437L437.55 437.25L437.74 437.51L437.91 437.78L438.09 438.05L438.25 438.33L438.41 438.62L438.57 438.91L438.72 439.21L438.86 439.52L439 439.84L439.14 440.16L439.27 440.49L439.4 440.83L439.52 441.18L439.64 441.53L439.75 441.89L439.86 442.26ZM412.61 450.08L413.97 449.69L414.45 451.08L415.03 452.34L415.71 453.47L416.49 454.48L417.34 455.37L418.27 456.15L419.26 456.81L420.3 457.36L421.4 457.81L422.54 458.15L423.7 458.38L424.89 458.51L426.09 458.54L427.29 458.47L428.48 458.3L429.66 458.04L430.81 457.68L431.92 457.23L432.99 456.7L434 456.07L434.94 455.37L435.81 454.58L436.59 453.72L437.29 452.78L437.88 451.76L438.37 450.68L438.73 449.52L438.98 448.29L439.09 446.98L439.05 445.61L438.86 444.16L438.5 442.65L439.86 442.26L440.25 443.91L440.46 445.5L440.5 447.02L440.38 448.48L440.11 449.87L439.69 451.18L439.14 452.41L438.47 453.55L437.69 454.61L436.81 455.59L435.84 456.46L434.8 457.25L433.68 457.93L432.51 458.53L431.29 459.02L430.03 459.41L428.74 459.7L427.43 459.88L426.11 459.96L424.79 459.93L423.48 459.78L422.19 459.52L420.93 459.14L419.7 458.65L418.53 458.03L417.41 457.28L416.37 456.41L415.41 455.4L414.54 454.27L413.78 453L413.13 451.61L412.61 450.08ZM417.53 434.88L418.39 435.99L418.02 436.29L417.67 436.6L417.32 436.92L416.99 437.26L416.67 437.6L416.36 437.95L416.07 438.32L415.79 438.69L415.52 439.07L415.27 439.46L415.04 439.86L414.82 440.27L414.61 440.69L414.43 441.11L414.25 441.54L414.09 441.98L413.95 442.43L413.83 442.88L413.72 443.33L413.63 443.8L413.55 444.27L413.5 444.74L413.46 445.21L413.44 445.7V446.19L413.46 446.68L413.49 447.17L413.55 447.67L413.63 448.17L413.72 448.68L413.84 449.18L413.97 449.69L412.61 450.08L412.46 449.52L412.33 448.96L412.22 448.41L412.14 447.86L412.08 447.3L412.04 446.75L412.02 446.21V445.67L412.04 445.13L412.09 444.6L412.15 444.07L412.23 443.55L412.33 443.04L412.45 442.52L412.59 442.02L412.75 441.53L412.93 441.04L413.12 440.56L413.33 440.09L413.56 439.62L413.8 439.17L414.06 438.72L414.34 438.29L414.64 437.86L414.95 437.45L415.27 437.04L415.61 436.65L415.96 436.27L416.34 435.9L416.72 435.55L417.11 435.2L417.52 434.88H417.53ZM422.04 433.11L422.48 434.45L422.47 434.46L422.09 434.47L422.07 434.46H422.05H422.04L422.01 434.45H421.97H421.93H421.88L421.82 434.44L421.75 434.45H421.67L421.59 434.46H421.49L421.39 434.48L421.28 434.5L421.16 434.53L421.04 434.56L420.9 434.6L420.76 434.64L420.61 434.7L420.45 434.76L420.28 434.83L420.1 434.91L419.92 435L419.72 435.11L419.52 435.22L419.31 435.35L419.1 435.49L418.87 435.64L418.64 435.81L418.39 435.99L417.53 434.88L417.79 434.67L418.05 434.48L418.31 434.31L418.56 434.15L418.8 434L419.04 433.87L419.27 433.75L419.49 433.63L419.7 433.54L419.91 433.45L420.11 433.37L420.3 433.3L420.49 433.24L420.67 433.19L420.84 433.14L421 433.11L421.16 433.08L421.3 433.06L421.45 433.04H421.57L421.7 433.03L421.81 433.02L421.92 433.03H422.02L422.11 433.04L422.18 433.05L422.25 433.06L422.32 433.07L422.37 433.08L422.41 433.09H422.42L422.05 433.11H422.04ZM190 432.03L189.79 433.43L189.34 433.37L188.9 433.32L188.49 433.29L188.1 433.27L187.73 433.26H187.39L187.07 433.27L186.77 433.29L186.49 433.32L186.23 433.36L185.99 433.39L185.77 433.44L185.56 433.49L185.38 433.55L185.21 433.6L185.05 433.66L184.91 433.72L184.79 433.78L184.68 433.84L184.58 433.89L184.5 433.95L184.43 434L184.36 434.05L184.31 434.09L184.27 434.13L184.23 434.17L184.21 434.19L184.2 434.21L184.19 434.23H184.18L183.59 434.55V433.14L183 433.45L183.02 433.42L183.05 433.38L183.09 433.32L183.15 433.26L183.21 433.19L183.29 433.11L183.37 433.04L183.47 432.95L183.58 432.87L183.7 432.78L183.84 432.69L183.99 432.6L184.15 432.52L184.33 432.43L184.52 432.35L184.73 432.27L184.95 432.19L185.2 432.12L185.45 432.06L185.73 432L186.02 431.95L186.32 431.91L186.65 431.88L187 431.86L187.37 431.84H187.75L188.16 431.85L188.59 431.88L189.04 431.91L189.5 431.96L190 432.03ZM194.92 433.93L194.16 435.13L194.04 435.05L193.91 434.97L193.79 434.9L193.67 434.82L193.29 434.61L193.16 434.55L193.04 434.48L192.91 434.42L192.78 434.35L192.65 434.29L192.52 434.23L192.39 434.17L191.99 434.01L191.72 433.91L191.58 433.86L191.44 433.81L191.3 433.77L191.01 433.68L190.87 433.64L190.57 433.57L190.27 433.51L189.95 433.46L189.79 433.43L190 432.03L190.18 432.05L190.36 432.09L190.54 432.12L190.71 432.15L191.05 432.23L191.39 432.32L191.55 432.36L191.71 432.41L192.04 432.52L192.2 432.57L192.35 432.63L192.66 432.75L192.81 432.81L192.96 432.88L193.11 432.94L193.25 433.01L193.4 433.08L193.54 433.15L193.69 433.22L193.97 433.37L194.11 433.45L194.38 433.6L194.52 433.68L194.65 433.77L194.79 433.85L194.92 433.93ZM192.09 459.38L191.67 458.03L192.49 457.74L193.28 457.39L194.04 456.98L194.77 456.52L195.46 456.01L196.11 455.45L196.72 454.85L197.3 454.21L197.83 453.53L198.32 452.81L198.75 452.07L199.15 451.3L199.49 450.5L199.78 449.69L200.02 448.86L200.2 448.01L200.32 447.15L200.39 446.29V445.42L200.33 444.55L200.21 443.68L200.03 442.82L199.77 441.97L199.45 441.13L199.06 440.3L198.6 439.49L198.06 438.7L197.44 437.93L196.75 437.18L195.97 436.46L195.11 435.78L194.16 435.13L194.92 433.93L195.95 434.64L196.89 435.39L197.75 436.18L198.52 437L199.2 437.85L199.8 438.73L200.32 439.64L200.76 440.57L201.12 441.52L201.4 442.47L201.61 443.44L201.75 444.41L201.81 445.38L201.8 446.34L201.73 447.3L201.59 448.26L201.39 449.2L201.13 450.12L200.81 451.02L200.43 451.9L200 452.75L199.51 453.57L198.98 454.36L198.39 455.11L197.75 455.83L197.07 456.5L196.34 457.12L195.57 457.69L194.76 458.2L193.91 458.66L193.02 459.05L192.09 459.38ZM174.03 449.69L175.39 449.3L175.57 449.87L175.77 450.44L175.99 451L176.24 451.55L176.51 452.09L176.8 452.62L177.11 453.13L177.45 453.64L177.8 454.13L178.18 454.6L178.58 455.05L179 455.48L179.44 455.89L179.9 456.29L180.39 456.66L180.89 457L181.41 457.31L181.95 457.6L182.52 457.86L183.1 458.09L183.7 458.29L184.32 458.46L184.96 458.6L185.63 458.7L186.31 458.76L187.01 458.78L187.73 458.77L188.48 458.71L189.25 458.61L190.04 458.46L190.84 458.27L191.67 458.03L192.09 459.38L191.2 459.64L190.33 459.85L189.47 460.01L188.63 460.12L187.81 460.18L187 460.2L186.22 460.17L185.46 460.1L184.71 459.99L183.99 459.84L183.29 459.65L182.61 459.43L181.95 459.17L181.32 458.87L180.71 458.55L180.12 458.19L179.55 457.8L179.02 457.39L178.5 456.96L178 456.5L177.54 456.01L177.09 455.51L176.68 454.99L176.28 454.45L175.91 453.89L175.57 453.32L175.25 452.74L174.95 452.15L174.68 451.55L174.44 450.93L174.22 450.32L174.03 449.69ZM175.46 438.65L176.73 439.29L176.59 439.58L176.45 439.88L176.31 440.18L176.18 440.47L176.06 440.77L175.94 441.07L175.83 441.38L175.72 441.68L175.62 441.98L175.52 442.29L175.44 442.6L175.36 442.91L175.28 443.22L175.21 443.53L175.15 443.84L175.1 444.16L175.05 444.47L175.02 444.79L174.99 445.11L174.96 445.43L174.95 445.74V446.06V446.38L174.96 446.7L174.98 447.03L175.01 447.35L175.05 447.67L175.1 448L175.16 448.32L175.23 448.65L175.31 448.98L175.39 449.3L174.03 449.69L173.93 449.32L173.84 448.96L173.77 448.59L173.7 448.23L173.65 447.86L173.6 447.5L173.57 447.14L173.55 446.78L173.53 446.42V446.06L173.54 445.7L173.55 445.34L173.57 444.99L173.61 444.64L173.65 444.29L173.7 443.94L173.76 443.59L173.82 443.25L173.89 442.91L173.98 442.56L174.07 442.23L174.16 441.89L174.27 441.55L174.38 441.22L174.49 440.89L174.61 440.57L174.74 440.24L174.88 439.92L175.02 439.6L175.16 439.28L175.31 438.96L175.46 438.65ZM183.59 433.14V434.55L183.8 434.52L183.62 434.57L183.45 434.6L183.28 434.62L183.11 434.63L182.77 434.65L182.41 434.67L182.22 434.68L182.03 434.7L181.84 434.72L181.64 434.75L181.43 434.79L181.22 434.84L181.01 434.91L180.79 434.98L180.56 435.07L180.34 435.17L180.1 435.29L179.87 435.43L179.62 435.59L179.38 435.78L179.13 435.99L178.87 436.22L178.61 436.49L178.35 436.78L178.08 437.11L177.81 437.47L177.54 437.87L177.27 438.3L177 438.78L176.73 439.29L175.46 438.65L175.76 438.09L176.05 437.58L176.36 437.1L176.66 436.65L176.96 436.24L177.27 435.87L177.57 435.52L177.88 435.21L178.19 434.92L178.5 434.67L178.8 434.44L179.11 434.23L179.41 434.05L179.71 433.9L180.01 433.76L180.3 433.65L180.58 433.55L180.86 433.47L181.13 433.41L181.39 433.36L181.64 433.32L181.88 433.29L182.1 433.27L182.32 433.25L182.7 433.23L183.02 433.21L183.14 433.2L183.25 433.19L183.33 433.18L183.38 433.17L183.59 433.14ZM183.38 433.17L183.48 433.14H183.59L183.38 433.17ZM268.86 551.99H270.28L270.25 551.79L270.33 551.98L270.47 552.15L270.68 552.32L270.99 552.48L271.39 552.64L271.89 552.77L272.46 552.87L273.11 552.95L273.81 553L274.59 553.03L275.41 553.04L276.29 553.03L277.2 553L278.16 552.97L279.16 552.92L280.18 552.87L281.23 552.81L282.3 552.75L283.38 552.69L284.48 552.64L285.59 552.59L286.71 552.55L287.82 552.53L288.93 552.52L290.03 552.54L291.11 552.57L292.19 552.63L293.24 552.72L294.27 552.84L295.27 552.99L296.23 553.18L297.16 553.42L296.78 554.78L295.92 554.57L295.02 554.39L294.07 554.24L293.1 554.13L292.09 554.04L291.05 553.99L290 553.95L288.92 553.94L287.84 553.95L286.74 553.97L285.64 554.01L284.55 554.05L283.46 554.11L282.38 554.16L281.3 554.22L280.25 554.28L279.23 554.34L278.22 554.38L277.25 554.42L276.31 554.45L275.41 554.46L274.55 554.45L273.73 554.41L272.96 554.36L272.25 554.27L271.58 554.15L270.97 553.99L270.41 553.78L269.91 553.5L269.47 553.15L269.12 552.71L268.89 552.19L268.86 551.99ZM268.89 552.19L268.86 552.09V551.99L268.89 552.19ZM270.26 375.88L270.28 551.99H268.86L268.84 375.88H270.26ZM261.06 355.7L261.58 354.38L262.51 354.75L263.37 355.08L264.17 355.39L264.91 355.69L265.58 355.98L266.21 356.25L266.78 356.53L267.3 356.81L267.79 357.1L268.23 357.41L268.63 357.74L268.98 358.11L269.3 358.5L269.57 358.93L269.79 359.39L269.98 359.88L270.12 360.41L270.23 360.97L270.32 361.58L270.38 362.24L270.41 362.95L270.43 363.72V364.55V365.46L270.41 366.44L270.39 367.5L270.36 368.65L270.33 369.89L270.3 371.23L270.28 372.68L270.27 374.22L270.26 375.88H268.84L268.85 374.21L268.86 372.66L268.89 371.21L268.91 369.87L268.94 368.62L268.96 367.47L268.99 366.41L269 365.44L269.01 364.55V363.74L268.99 363L268.96 362.34L268.91 361.74L268.83 361.2L268.74 360.73L268.63 360.31L268.49 359.94L268.33 359.61L268.14 359.32L267.93 359.05L267.67 358.79L267.37 358.54L267.02 358.29L266.61 358.04L266.14 357.79L265.61 357.54L265.02 357.28L264.37 357L263.64 356.71L262.86 356.4L262 356.07L261.06 355.7ZM233.97 337.48L235.01 336.51L234.97 336.47L235.76 337.2L236.54 337.91L237.29 338.6L238.04 339.28L238.77 339.95L239.5 340.6L240.21 341.24L240.92 341.86L241.63 342.48L242.34 343.08L243.04 343.67L243.75 344.25L244.46 344.82L245.18 345.38L245.91 345.93L246.65 346.46L247.4 347L248.16 347.52L248.95 348.04L249.75 348.55L250.57 349.06L251.42 349.56L252.29 350.05L253.18 350.55L254.11 351.04L255.07 351.52L256.06 352L257.09 352.48L258.15 352.96L259.25 353.43L260.39 353.91L261.58 354.38L261.06 355.7L259.86 355.22L258.7 354.74L257.57 354.25L256.49 353.77L255.45 353.28L254.44 352.79L253.46 352.29L252.51 351.8L251.59 351.29L250.7 350.79L249.84 350.27L249 349.75L248.17 349.23L247.37 348.7L246.59 348.16L245.82 347.61L245.06 347.06L244.32 346.5L243.59 345.93L242.86 345.35L242.14 344.76L241.42 344.16L240.71 343.55L239.99 342.93L239.27 342.3L238.55 341.66L237.82 341L237.08 340.33L236.34 339.65L235.57 338.95L234.8 338.24L234.01 337.52L233.97 337.48ZM228 329.04L235.01 336.51L233.97 337.48L226.97 330L226.93 329.95L228 329.04ZM226.97 330L226.95 329.98L226.93 329.95L226.97 330ZM241.76 206.44L242.61 207.57L239.41 210.1L236.34 212.78L233.42 215.61L230.64 218.57L228.02 221.68L225.55 224.9L223.23 228.24L221.08 231.7L219.09 235.25L217.27 238.91L215.62 242.65L214.15 246.47L212.86 250.37L211.76 254.34L210.85 258.36L210.13 262.44L209.61 266.57L209.28 270.73L209.16 274.93L209.25 279.14L209.55 283.38L210.07 287.63L210.82 291.88L211.78 296.13L212.97 300.36L214.39 304.57L216.06 308.77L217.96 312.92L220.11 317.04L222.5 321.11L225.14 325.13L228.05 329.09L226.93 329.95L223.98 325.94L221.29 321.86L218.86 317.73L216.68 313.55L214.75 309.32L213.06 305.06L211.62 300.78L210.4 296.47L209.42 292.16L208.67 287.84L208.14 283.52L207.84 279.21L207.74 274.92L207.86 270.66L208.19 266.42L208.72 262.23L209.46 258.08L210.39 253.99L211.51 249.96L212.82 246L214.31 242.11L215.98 238.3L217.83 234.59L219.86 230.97L222.04 227.46L224.4 224.06L226.91 220.79L229.59 217.63L232.41 214.61L235.38 211.74L238.5 209.01L241.76 206.44ZM381.71 267.19L380.3 267.34L379.41 261.06L378.14 255L376.49 249.17L374.48 243.57L372.14 238.2L369.48 233.09L366.51 228.22L363.26 223.61L359.73 219.27L355.95 215.2L351.93 211.4L347.7 207.89L343.25 204.67L338.63 201.75L333.83 199.13L328.88 196.82L323.79 194.83L318.58 193.17L313.27 191.83L307.88 190.83L302.42 190.18L296.9 189.88L291.35 189.93L285.79 190.34L280.21 191.13L274.66 192.29L269.14 193.84L263.67 195.78L258.27 198.12L252.94 200.86L247.71 204L242.61 207.57L241.76 206.44L246.94 202.82L252.25 199.62L257.66 196.84L263.15 194.46L268.71 192.49L274.32 190.92L279.97 189.73L285.63 188.93L291.29 188.51L296.93 188.46L302.54 188.77L308.09 189.43L313.58 190.45L318.97 191.8L324.27 193.5L329.44 195.52L334.47 197.87L339.35 200.53L344.05 203.5L348.57 206.77L352.88 210.34L356.96 214.2L360.8 218.34L364.39 222.76L367.7 227.45L370.71 232.39L373.42 237.59L375.8 243.05L377.84 248.74L379.51 254.66L380.81 260.82L381.71 267.19ZM344.47 347.04L343.66 345.88L345.53 344.55L347.4 343.13L349.26 341.64L351.12 340.07L352.96 338.42L354.78 336.69L356.58 334.88L358.35 333L360.09 331.05L361.79 329.02L363.45 326.91L365.06 324.73L366.62 322.48L368.13 320.16L369.57 317.78L370.95 315.32L372.25 312.79L373.49 310.2L374.64 307.54L375.71 304.82L376.69 302.03L377.58 299.18L378.37 296.27L379.05 293.29L379.64 290.25L380.1 287.15L380.45 284L380.68 280.78L380.79 277.5L380.76 274.17L380.6 270.79L380.3 267.34L381.71 267.19L382.02 270.69L382.18 274.13L382.21 277.52L382.1 280.85L381.87 284.13L381.51 287.34L381.04 290.49L380.45 293.58L379.75 296.61L378.94 299.57L378.04 302.48L377.04 305.31L375.95 308.09L374.78 310.79L373.52 313.43L372.2 315.99L370.79 318.49L369.33 320.92L367.8 323.27L366.21 325.56L364.57 327.77L362.89 329.91L361.16 331.97L359.4 333.96L357.6 335.87L355.77 337.7L353.92 339.46L352.05 341.14L350.17 342.73L348.27 344.25L346.37 345.69L344.47 347.04ZM321.11 367.07H319.69L319.68 365.66V364.39V363.27L319.69 362.27L319.72 361.39L319.77 360.61L319.85 359.93L319.97 359.31L320.13 358.76L320.35 358.26L320.64 357.82L320.99 357.43L321.39 357.11L321.84 356.84L322.34 356.61L322.88 356.39L323.48 356.18L324.14 355.96L324.88 355.73L325.69 355.46L326.59 355.14L327.58 354.78L328.67 354.35L329.86 353.84L331.16 353.26L332.57 352.57L334.1 351.78L335.75 350.88L337.53 349.84L339.43 348.67L341.48 347.36L343.66 345.88L344.47 347.04L342.26 348.54L340.19 349.87L338.25 351.06L336.45 352.11L334.77 353.04L333.21 353.84L331.77 354.54L330.43 355.14L329.21 355.66L328.09 356.1L327.07 356.48L326.15 356.8L325.32 357.07L324.59 357.31L323.94 357.52L323.38 357.72L322.9 357.91L322.51 358.09L322.2 358.28L321.95 358.47L321.77 358.68L321.61 358.93L321.47 359.24L321.35 359.64L321.26 360.13L321.19 360.74L321.14 361.46L321.11 362.31L321.1 363.28L321.09 364.39L321.1 365.65L321.11 367.07ZM322.5 394.82L321.5 395.82L321.46 395.78L321.14 395.33L320.87 394.81L320.64 394.23L320.44 393.57L320.27 392.86L320.12 392.09L319.98 391.26L319.87 390.38L319.77 389.45L319.68 388.47L319.62 387.46L319.56 386.42L319.52 385.35L319.48 384.26L319.46 383.15L319.45 382.03V380.9V379.78L319.46 378.66L319.47 377.55L319.49 376.45L319.51 375.38L319.53 374.34L319.56 373.32L319.58 372.35L319.61 371.42L319.63 370.54L319.65 369.71L319.67 368.95L319.68 368.25L319.69 367.62V367.07H321.11V367.63L321.1 368.27L321.09 368.97L321.07 369.74L321.05 370.57L321.03 371.45L321 372.39L320.98 373.36L320.95 374.37L320.93 375.41L320.91 376.48L320.89 377.57L320.88 378.67L320.87 379.79L320.86 380.9L320.87 382.02L320.88 383.13L320.9 384.22L320.94 385.3L320.98 386.35L321.04 387.38L321.1 388.36L321.18 389.31L321.28 390.21L321.39 391.05L321.51 391.84L321.65 392.56L321.81 393.2L321.98 393.76L322.17 394.23L322.36 394.6L322.54 394.86L322.5 394.82ZM321.5 395.82L321.47 395.8L321.46 395.78L321.5 395.82ZM343 417.23L321.5 395.82L322.5 394.82L344.01 416.23L344.21 416.73L343 417.23ZM344.01 416.23L344.21 416.44V416.73L344.01 416.23ZM342.71 441.92L342.8 416.73H344.21L344.13 441.92L343.57 442.61L342.71 441.92ZM344.13 441.92V442.49L343.57 442.61L344.13 441.92ZM321.94 444.34L320.74 443.59L320.77 443.54L321.13 443.13L321.54 442.76L321.98 442.45L322.46 442.19L322.97 441.97L323.51 441.8L324.07 441.66L324.66 441.55L325.27 441.48L325.91 441.43L326.56 441.4L327.24 441.39L327.94 441.4L328.65 441.42L329.39 441.45L330.14 441.49L331.68 441.59L333.28 441.68L334.09 441.73L334.91 441.76L335.74 441.79L336.57 441.8H337.41L338.25 441.79L339.1 441.76L339.94 441.7L340.78 441.63L341.61 441.52L342.45 441.39L343.27 441.23L343.57 442.61L342.69 442.79L341.81 442.93L340.93 443.04L340.05 443.12L339.17 443.18L338.3 443.21L337.43 443.22H336.56L335.7 443.21L334.86 443.18L334.02 443.14L333.2 443.1L331.59 443L330.05 442.91L329.32 442.87L328.6 442.84L327.91 442.82L327.24 442.81L326.6 442.82L325.99 442.84L325.42 442.89L324.87 442.96L324.36 443.05L323.89 443.16L323.46 443.3L323.07 443.46L322.73 443.66L322.42 443.87L322.14 444.12L321.91 444.39L321.94 444.34ZM320.74 443.59L320.75 443.57L320.77 443.54L320.74 443.59ZM321.24 468.87L320.36 469.98L320.1 469.54L320.02 469.02L319.94 468.43L319.86 467.79L319.79 467.09L319.72 466.34L319.65 465.55L319.59 464.71L319.52 463.84L319.47 462.94L319.42 462L319.38 461.05L319.34 460.07L319.3 459.08L319.28 458.09L319.26 457.08L319.25 456.08V455.08L319.26 454.09L319.28 453.11L319.31 452.16L319.35 451.22L319.4 450.31L319.46 449.44L319.54 448.59L319.63 447.79L319.73 447.04L319.85 446.33L319.98 445.67L320.13 445.07L320.3 444.52L320.5 444.03L320.74 443.59L321.94 444.34L321.79 444.63L321.64 445L321.5 445.45L321.37 445.98L321.24 446.59L321.13 447.25L321.04 447.97L320.95 448.74L320.88 449.55L320.82 450.4L320.77 451.29L320.73 452.21L320.7 453.15L320.68 454.11L320.67 455.09V456.07L320.68 457.06L320.7 458.05L320.72 459.04L320.75 460.02L320.79 460.98L320.84 461.93L320.89 462.86L320.94 463.75L321 464.61L321.06 465.43L321.13 466.21L321.2 466.95L321.27 467.63L321.35 468.26L321.42 468.82L321.5 469.31L321.24 468.87ZM320.36 469.98L320.14 469.81L320.1 469.54L320.36 469.98ZM340.93 481.5L339.94 480.48L340.06 481.59L339.53 481.27L338.98 480.95L338.41 480.62L337.82 480.28L337.22 479.94L336.6 479.59L335.96 479.24L335.32 478.88L334.66 478.52L334 478.16L333.33 477.8L331.97 477.05L331.29 476.68L329.92 475.93L329.24 475.56L328.56 475.18L327.89 474.8L327.23 474.43L326.57 474.05L325.93 473.67L325.29 473.29L324.67 472.92L324.07 472.54L323.48 472.17L322.9 471.8L322.35 471.43L321.82 471.07L321.3 470.7L320.82 470.34L320.36 469.98L321.24 468.87L321.68 469.21L322.14 469.55L322.63 469.9L323.14 470.26L323.68 470.62L324.24 470.98L324.82 471.34L325.41 471.71L326.02 472.08L326.65 472.45L327.29 472.82L327.93 473.2L328.59 473.57L329.26 473.95L329.93 474.32L330.61 474.69L331.29 475.07L331.97 475.44L332.65 475.81L333.33 476.18L334.01 476.55L334.68 476.91L335.34 477.28L336 477.64L336.65 478L337.29 478.35L337.91 478.7L338.53 479.05L339.12 479.39L339.7 479.73L340.26 480.06L340.8 480.39L340.93 481.5ZM340.8 480.39L341.59 480.86L340.93 481.5L340.8 480.39ZM330.69 490.23L329.8 489.12L330.48 488.59L330.81 488.32L331.79 487.54L332.12 487.28L332.44 487.02L333.08 486.5L333.4 486.24L333.71 485.98L334.03 485.72L334.34 485.46L334.97 484.94L335.28 484.68L335.59 484.41L335.9 484.15L336.21 483.88L336.83 483.34L337.14 483.07L337.76 482.51L338.07 482.23L338.38 481.95L338.69 481.66L339 481.37L339.32 481.08L339.63 480.78L339.94 480.48L340.93 481.5L340.61 481.8L340.29 482.11L339.97 482.41L339.66 482.7L339.34 482.99L339.03 483.28L338.71 483.56L338.4 483.85L338.09 484.13L337.77 484.4L337.46 484.68L337.14 484.95L336.83 485.22L336.52 485.49L335.25 486.55L334.93 486.82L333.65 487.86L333 488.39L332.68 488.64L332.35 488.91L332.02 489.17L331.36 489.7L331.02 489.96L330.69 490.23ZM321.35 498.51L319.93 498.36L320.07 498.02L320.26 497.76L320.47 497.5L320.69 497.23L320.93 496.96L321.18 496.68L321.45 496.4L321.72 496.12L322.01 495.83L322.3 495.54L322.61 495.24L322.93 494.94L323.25 494.64L323.57 494.34L323.91 494.04L324.25 493.73L324.59 493.43L324.93 493.13L325.28 492.83L325.63 492.53L326.32 491.95L326.66 491.66L327.01 491.38L327.35 491.09L327.68 490.82L328.01 490.55L328.33 490.3L328.64 490.04L328.95 489.8L329.25 489.56L329.53 489.33L329.8 489.12L330.69 490.23L330.41 490.45L330.13 490.67L329.84 490.91L329.53 491.15L329.22 491.4L328.9 491.66L328.58 491.92L328.25 492.19L327.91 492.46L327.57 492.75L327.23 493.03L326.55 493.61L326.2 493.91L325.86 494.2L325.52 494.5L325.19 494.79L324.53 495.39L324.21 495.68L323.9 495.97L323.59 496.26L323.3 496.55L323.01 496.83L322.74 497.11L322.47 497.38L322.23 497.65L321.99 497.91L321.77 498.16L321.57 498.4L321.38 498.63L321.21 498.85L321.35 498.51ZM319.93 498.36L319.95 498.17L320.07 498.02L319.93 498.36ZM321.57 522.66L321.08 523.99L320.67 523.6L320.48 523.11L320.32 522.57L320.18 521.99L320.05 521.37L319.93 520.7L319.83 520L319.73 519.25L319.65 518.48L319.58 517.67L319.52 516.83L319.47 515.97L319.43 515.09L319.4 514.2L319.38 513.29L319.36 512.36V511.43V510.5V509.56L319.38 508.63L319.39 507.71L319.42 506.79L319.45 505.89L319.48 505.01L319.52 504.14L319.56 503.3L319.61 502.48L319.66 501.7L319.71 500.95L319.76 500.24L319.82 499.57L319.88 498.94L319.93 498.36L321.35 498.51L321.29 499.08L321.23 499.69L321.18 500.35L321.13 501.05L321.07 501.8L321.02 502.57L320.98 503.38L320.94 504.21L320.9 505.07L320.86 505.94L320.84 506.84L320.81 507.74L320.79 508.66L320.78 509.58L320.77 510.5V511.43L320.78 512.34L320.8 513.25L320.82 514.15L320.85 515.04L320.89 515.9L320.94 516.74L321 517.55L321.07 518.34L321.14 519.09L321.23 519.8L321.33 520.48L321.44 521.1L321.56 521.68L321.69 522.2L321.83 522.66L321.98 523.05L321.57 522.66ZM321.08 523.99L320.79 523.88L320.67 523.6L321.08 523.99ZM344.11 524.48L342.7 524.57L343.25 525.21L342.66 525.1L342.05 525L341.41 524.92L340.75 524.86L340.09 524.8L339.4 524.77L338.7 524.75L337.99 524.73H337.27L336.54 524.74L335.8 524.75L335.05 524.77L334.3 524.79L333.55 524.82L332.8 524.84L332.05 524.87L331.3 524.89L329.8 524.93L329.07 524.94H328.33L327.61 524.93L326.89 524.91L326.19 524.88L325.5 524.84L324.82 524.78L324.15 524.7L323.5 524.61L322.87 524.49L322.25 524.35L321.65 524.18L321.08 523.99L321.57 522.66L322.07 522.82L322.6 522.97L323.15 523.1L323.73 523.21L324.34 523.3L324.96 523.37L325.6 523.43L326.26 523.47L326.94 523.5L327.63 523.52H328.34H329.05L329.78 523.51L330.52 523.5L331.25 523.47L332.75 523.43L333.51 523.4L335.02 523.35L335.77 523.33L336.52 523.32L337.27 523.31L338 523.32L338.73 523.33L339.46 523.35L340.18 523.39L340.88 523.44L341.57 523.51L342.25 523.6L342.91 523.7L343.56 523.83L344.11 524.48ZM343.56 523.83L344.08 523.95L344.11 524.48L343.56 523.83ZM344.16 539.2L342.77 538.95L342.8 538.76L342.83 538.52L342.85 538.23L342.88 537.91L342.89 537.54L342.91 537.14L342.93 536.71L342.94 536.26L342.95 535.78V535.28V534.76V534.23V533.68V533.12L342.94 532.56L342.93 531.42L342.9 530.29L342.89 529.73L342.88 529.18L342.86 528.64L342.84 528.12L342.83 527.62L342.81 527.13L342.79 526.67L342.78 526.24L342.76 525.84L342.75 525.46L342.73 525.13L342.71 524.82L342.7 524.57L344.11 524.48L344.13 524.75L344.14 525.05L344.16 525.4L344.18 525.77L344.2 526.18L344.21 526.62L344.23 527.08L344.25 527.57L344.26 528.07L344.28 528.6L344.29 529.14L344.31 529.69L344.32 530.25L344.33 530.82L344.34 531.39L344.36 532.54L344.37 533.11V533.67V534.77V535.29L344.36 535.8V536.29L344.34 536.75L344.33 537.2L344.31 537.61L344.29 537.99L344.27 538.34L344.24 538.66L344.21 538.95L344.16 539.2ZM336.75 547.43L335.82 546.36L336.01 546.19L336.21 546.01L336.43 545.82L336.66 545.63L336.91 545.42L337.16 545.2L337.42 544.97L337.69 544.74L337.96 544.5L338.25 544.25L338.53 543.99L338.81 543.73L339.1 543.47L339.38 543.21L339.67 542.94L339.95 542.67L340.49 542.13L340.75 541.86L341 541.59L341.24 541.32L341.47 541.06L341.68 540.8L341.88 540.55L342.06 540.3L342.23 540.07L342.38 539.84L342.5 539.63L342.6 539.43L342.68 539.25L342.73 539.08L342.77 538.95L344.16 539.2L344.1 539.48L344 539.76L343.88 540.04L343.74 540.31L343.59 540.58L343.41 540.86L343.21 541.13L343 541.41L342.78 541.7L342.55 541.98L342.3 542.26L342.04 542.54L341.78 542.83L341.5 543.11L341.22 543.4L340.94 543.68L340.65 543.96L340.36 544.24L340.06 544.51L339.77 544.78L339.48 545.05L339.19 545.3L338.91 545.56L338.63 545.8L338.35 546.04L338.09 546.27L337.83 546.49L337.59 546.7L337.36 546.9L337.14 547.09L336.93 547.26L336.75 547.43ZM321.19 560.61L319.77 560.59L319.99 560.09L320.43 559.67L320.88 559.25L321.34 558.82L321.8 558.4L322.27 557.97L322.75 557.54L323.23 557.11L323.72 556.68L324.21 556.24L324.71 555.8L325.22 555.37L326.23 554.49L326.75 554.05L327.26 553.61L327.78 553.18L328.3 552.74L328.81 552.3L329.33 551.86L329.85 551.43L330.88 550.56L331.9 549.7L332.41 549.27L332.91 548.84L333.41 548.42L333.9 548L334.39 547.59L334.87 547.17L335.35 546.76L335.82 546.36L336.75 547.43L336.27 547.83L335.8 548.25L335.31 548.66L334.82 549.08L334.32 549.5L333.82 549.93L333.32 550.35L332.81 550.78L331.79 551.64L330.25 552.95L329.73 553.38L329.21 553.82L328.7 554.26L328.18 554.7L327.67 555.13L327.16 555.57L326.65 556L326.15 556.44L325.65 556.88L325.15 557.3L324.66 557.74L324.18 558.17L323.7 558.6L323.22 559.02L322.75 559.45L322.3 559.87L321.85 560.29L321.41 560.7L320.97 561.11L321.19 560.61ZM319.77 560.59L319.78 560.29L319.99 560.09L319.77 560.59ZM319.45 580.69L319.77 560.59L321.19 560.61L320.87 580.71L320.16 581.41L319.45 580.69ZM320.87 580.71L320.86 581.41H320.16L320.87 580.71ZM298.98 580.06L320.15 580L320.16 581.41L298.98 581.48L298.28 580.87L298.98 580.06ZM298.98 581.48H298.37L298.28 580.87L298.98 581.48ZM296.78 554.78L297.16 553.42L297.53 553.66L297.91 554.21L298.25 554.8L298.54 555.44L298.79 556.12L299 556.84L299.18 557.59L299.33 558.38L299.45 559.19L299.55 560.03L299.62 560.9L299.68 561.79L299.71 562.7L299.73 563.63L299.74 564.57L299.73 565.53L299.71 566.49L299.69 567.46L299.66 568.43L299.63 569.41L299.59 570.38L299.55 571.34L299.52 572.29L299.48 573.24L299.46 574.16L299.44 575.07L299.43 575.96L299.44 576.83L299.45 577.66L299.48 578.47L299.53 579.24L299.6 579.98L299.68 580.67L298.28 580.87L298.19 580.13L298.12 579.35L298.07 578.54L298.04 577.71L298.02 576.84V575.96V575.05L298.04 574.13L298.07 573.19L298.1 572.24L298.13 571.29L298.17 570.32L298.24 568.38L298.27 567.42L298.3 566.46L298.31 565.51L298.32 564.57L298.31 563.65L298.29 562.75L298.26 561.86L298.21 561L298.14 560.18L298.04 559.38L297.93 558.61L297.79 557.89L297.63 557.2L297.44 556.57L297.22 555.98L296.98 555.45L296.71 554.96L296.41 554.54L296.78 554.78ZM297.16 553.42L297.39 553.48L297.53 553.66L297.16 553.42ZM220.96 332.21L219.82 333.06L218.45 331.22L217.14 329.39L215.89 327.57L214.7 325.76L213.56 323.96L212.48 322.16L211.45 320.36L210.48 318.57L209.56 316.77L208.69 314.98L207.88 313.17L207.11 311.36L206.39 309.54L205.72 307.71L205.09 305.88L204.51 304.02L203.98 302.15L203.48 300.26L203.04 298.36L202.63 296.43L202.25 294.48L201.92 292.5L201.63 290.5L201.37 288.46L201.14 286.4L200.95 284.31L200.79 282.18L200.67 280.01L200.57 277.81L200.5 275.56L200.46 273.28L200.45 270.95H201.87L201.88 273.26L201.92 275.53L201.99 277.75L202.08 279.94L202.21 282.09L202.37 284.19L202.55 286.26L202.78 288.3L203.03 290.3L203.32 292.28L203.65 294.23L204.02 296.15L204.42 298.05L204.86 299.92L205.35 301.78L205.87 303.61L206.44 305.44L207.05 307.24L207.71 309.04L208.42 310.82L209.18 312.6L209.98 314.38L210.83 316.14L211.73 317.91L212.69 319.68L213.7 321.45L214.77 323.21L215.89 325L217.07 326.78L218.3 328.58L219.6 330.38L220.96 332.21ZM262.8 363.06H261.38L262.03 363.77L260.87 363.62L259.66 363.38L258.4 363.03L257.11 362.6L255.77 362.09L254.41 361.49L253 360.82L251.58 360.08L250.13 359.28L248.66 358.41L247.17 357.49L245.67 356.51L244.16 355.49L242.66 354.43L241.15 353.32L239.64 352.19L238.15 351.02L236.67 349.83L235.21 348.62L233.77 347.39L232.36 346.15L230.98 344.91L229.64 343.66L228.33 342.41L227.07 341.18L225.86 339.95L224.69 338.73L223.59 337.54L222.55 336.38L221.57 335.24L220.66 334.13L219.82 333.06L220.96 332.21L221.77 333.25L222.66 334.32L223.61 335.44L224.64 336.59L225.73 337.77L226.87 338.96L228.07 340.17L229.32 341.39L230.61 342.63L231.94 343.86L233.3 345.09L234.7 346.32L236.13 347.53L237.57 348.73L239.04 349.91L240.51 351.06L242 352.19L243.48 353.27L244.97 354.32L246.46 355.33L247.93 356.29L249.39 357.2L250.83 358.05L252.25 358.83L253.64 359.55L255 360.2L256.31 360.77L257.59 361.27L258.82 361.68L259.99 362L261.1 362.22L262.15 362.36L262.8 363.06ZM262.15 362.36L262.8 362.41V363.06L262.15 362.36ZM261.38 442.36V363.06H262.8V442.36L262.09 443.07L261.38 442.36ZM262.8 442.36V443.07H262.09L262.8 442.36ZM208.38 441.66H262.09V443.07H208.38L207.68 442.52L208.38 441.66ZM208.38 443.07H207.81L207.68 442.52L208.38 443.07ZM167.39 447.17H165.98L166.08 444.65L166.39 442.27L166.89 440.02L167.57 437.91L168.41 435.95L169.41 434.13L170.56 432.46L171.83 430.94L173.22 429.56L174.72 428.34L176.31 427.27L177.98 426.36L179.71 425.61L181.5 425L183.34 424.56L185.2 424.28L187.08 424.15L188.96 424.19L190.84 424.39L192.71 424.75L194.54 425.27L196.32 425.97L198.06 426.83L199.72 427.86L201.31 429.05L202.8 430.42L204.18 431.96L205.45 433.66L206.58 435.54L207.57 437.59L208.4 439.81L209.07 442.2L207.68 442.52L207.05 440.25L206.26 438.15L205.33 436.21L204.27 434.45L203.08 432.85L201.79 431.41L200.4 430.14L198.92 429.02L197.37 428.07L195.75 427.27L194.09 426.62L192.38 426.13L190.63 425.79L188.88 425.61L187.11 425.57L185.35 425.69L183.61 425.95L181.89 426.37L180.22 426.93L178.6 427.63L177.05 428.48L175.57 429.48L174.17 430.62L172.88 431.89L171.69 433.32L170.62 434.88L169.69 436.57L168.89 438.41L168.26 440.39L167.79 442.51L167.5 444.77L167.39 447.17ZM173.36 460.52L172.36 461.52L172.08 461.23L171.79 460.93L171.51 460.61L171.23 460.28L170.95 459.93L170.66 459.57L170.38 459.19L170.11 458.81L169.83 458.41L169.56 458L169.3 457.58L169.04 457.15L168.79 456.71L168.54 456.26L168.29 455.8L168.06 455.34L167.84 454.87L167.62 454.39L167.41 453.9L167.22 453.4L167.04 452.9L166.87 452.4L166.71 451.89L166.56 451.38L166.43 450.86L166.32 450.34L166.21 449.81L166.13 449.29L166.06 448.76L166.02 448.23L165.98 447.7V447.17H167.39L167.4 447.64L167.43 448.13L167.48 448.61L167.54 449.09L167.61 449.57L167.7 450.05L167.81 450.53L167.93 451.01L168.07 451.48L168.21 451.96L168.38 452.43L168.55 452.9L168.73 453.36L168.92 453.82L169.13 454.27L169.34 454.72L169.56 455.16L169.79 455.59L170.02 456.02L170.26 456.43L170.5 456.84L170.76 457.23L171.01 457.62L171.27 457.99L171.53 458.36L171.79 458.71L172.05 459.05L172.32 459.37L172.58 459.68L172.85 459.98L173.11 460.26L173.36 460.52ZM208.38 448.86V450.28L209.07 449.73L208.6 451.48L208.04 453.13L207.4 454.7L206.67 456.18L205.86 457.57L204.98 458.88L204.03 460.09L203.02 461.22L201.95 462.26L200.82 463.21L199.64 464.06L198.43 464.83L197.17 465.51L195.88 466.1L194.55 466.6L193.21 467.01L191.84 467.33L190.46 467.57L189.08 467.71L187.69 467.76L186.29 467.73L184.91 467.61L183.53 467.4L182.16 467.1L180.82 466.71L179.5 466.23L178.21 465.67L176.95 465.02L175.73 464.27L174.55 463.45L173.43 462.53L172.36 461.52L173.36 460.52L174.36 461.46L175.41 462.32L176.51 463.09L177.64 463.78L178.82 464.39L180.02 464.91L181.26 465.36L182.51 465.72L183.79 466L185.07 466.2L186.37 466.31L187.68 466.34L188.98 466.29L190.27 466.16L191.56 465.94L192.84 465.64L194.09 465.26L195.33 464.79L196.54 464.24L197.71 463.61L198.85 462.89L199.95 462.09L201 461.21L202 460.24L202.95 459.18L203.83 458.05L204.66 456.82L205.42 455.52L206.11 454.12L206.71 452.64L207.24 451.07L207.68 449.41L208.38 448.86ZM207.68 449.41L207.81 448.86H208.38L207.68 449.41ZM262.09 450.28H208.38V448.86H262.09L262.8 449.57L262.09 450.28ZM262.09 448.86H262.8V449.57L262.09 448.86ZM261.38 556.11V449.57H262.8V556.11H261.38ZM265.3 560.2V561.62L265.03 561.61L264.77 561.59L264.51 561.55L264.27 561.49L264.03 561.42L263.8 561.33L263.59 561.23L263.38 561.11L263.19 560.98L263 560.84L262.83 560.68L262.67 560.52L262.52 560.34L262.39 560.16L262.26 559.97L262.15 559.77L262.04 559.57L261.95 559.37L261.86 559.15L261.78 558.94L261.71 558.71L261.65 558.49L261.59 558.26L261.55 558.03L261.5 557.79L261.47 557.56L261.44 557.32L261.42 557.08L261.39 556.59L261.38 556.35V556.11H262.8V556.32V556.54L262.82 556.75L262.83 556.96L262.85 557.17L262.88 557.37L262.91 557.57L262.94 557.76L262.98 557.95L263.02 558.14L263.07 558.31L263.13 558.48L263.18 558.64L263.25 558.8L263.32 558.95L263.39 559.09L263.46 559.22L263.55 559.34L263.63 559.46L263.72 559.57L263.82 559.66L263.92 559.75L264.02 559.83L264.13 559.91L264.24 559.97L264.37 560.03L264.5 560.08L264.63 560.13L264.78 560.16L264.94 560.18L265.11 560.2H265.3ZM290.95 561.62H265.3V560.2H290.95L291.66 560.91L290.95 561.62ZM290.95 560.2H291.66V560.91L290.95 560.2ZM291.91 586.66L291.59 588.04L291.06 587.51L290.91 586.8L290.77 586.07L290.64 585.32L290.53 584.55L290.43 583.77L290.35 582.96L290.27 582.15L290.21 581.32L290.15 580.48L290.11 579.62L290.07 578.76L290.05 577.89L290.03 577.01L290.02 576.13L290.01 574.36V573.46L290.04 571.68L290.07 569.92L290.09 569.04L290.11 568.17L290.13 567.31L290.15 566.46L290.17 565.63L290.19 564.8L290.21 563.99L290.22 563.19L290.23 562.41L290.24 561.65V560.91H291.66V561.66L291.65 562.43L291.64 563.21L291.63 564.02L291.61 564.83L291.59 565.66L291.57 566.5L291.55 567.35L291.53 568.21L291.51 569.07L291.47 570.82L291.45 571.71L291.44 572.59L291.43 573.47V574.36V575.24V576.11L291.45 576.99L291.47 577.85L291.49 578.71L291.53 579.56L291.57 580.39L291.63 581.22L291.68 582.03L291.76 582.82L291.84 583.6L291.94 584.36L292.04 585.1L292.16 585.82L292.3 586.52L292.44 587.19L291.91 586.66ZM291.59 588.04L291.16 587.94L291.06 587.51L291.59 588.04ZM324.62 587.44V588.86H323.8L322.93 588.87L322.02 588.88L321.07 588.89L320.08 588.91L319.06 588.93L318.02 588.95L316.94 588.98L315.84 589L314.72 589.02L313.59 589.04L312.44 589.06L311.28 589.08L310.11 589.09L308.95 589.1L307.77 589.11H306.61L305.45 589.1L304.3 589.09L303.16 589.07L302.03 589.04L300.93 589.01L299.84 588.96L298.79 588.91L297.76 588.85L296.76 588.77L295.8 588.68L294.87 588.58L293.98 588.47L293.14 588.34L292.34 588.2L291.59 588.04L291.91 586.66L292.61 586.8L293.37 586.94L294.18 587.07L295.04 587.18L295.94 587.27L296.88 587.36L297.86 587.43L298.87 587.5L299.91 587.55L300.98 587.59L302.07 587.63L303.18 587.65L304.31 587.67L305.46 587.68L306.61 587.69H307.77L308.93 587.68L311.26 587.66L312.41 587.64L313.56 587.63L314.7 587.6L315.81 587.58L316.91 587.56L317.98 587.54L319.04 587.52L320.06 587.49L321.05 587.48L322 587.46L322.92 587.45L323.79 587.44H324.62ZM327.12 577.74L328.54 577.73V578.15L328.55 578.57L328.57 579L328.59 579.44L328.61 579.88L328.64 580.78L328.68 581.68V582.13L328.69 582.57V583.01L328.68 583.45L328.66 583.88L328.63 584.3L328.58 584.71L328.52 585.12L328.45 585.51L328.35 585.89L328.24 586.27L328.1 586.63L327.94 586.96L327.75 587.29L327.53 587.6L327.27 587.88L326.98 588.13L326.66 588.35L326.3 588.54L325.92 588.68L325.52 588.78L325.08 588.84L324.62 588.86V587.44L324.95 587.43L325.25 587.38L325.51 587.32L325.73 587.23L325.93 587.13L326.11 587.01L326.28 586.87L326.43 586.7L326.56 586.52L326.68 586.3L326.8 586.07L326.9 585.8L326.98 585.52L327.06 585.21L327.12 584.88L327.17 584.54L327.21 584.17L327.24 583.79L327.26 583.39L327.27 582.99V582.57V582.15L327.26 581.72L327.24 581.28L327.23 580.84L327.15 579.05L327.14 578.61L327.13 578.17L327.12 577.74ZM327.43 563.53L328.22 564.71L328.54 564.12V566.67V567.52V570.93L328.53 571.78V573.48L328.54 574.33V576.46V576.88V577.73L327.12 577.74V577.31V576.04L327.11 575.18V570.07L327.12 569.22V564.97V564.12L327.43 563.53ZM327.12 564.12V563.74L327.43 563.53L327.12 564.12ZM345.7 547.41L346.57 548.53L346.23 548.8L345.84 549.13L345.42 549.48L344.97 549.88L344.5 550.3L343.99 550.76L343.47 551.24L342.92 551.75L342.35 552.28L341.76 552.82L341.16 553.39L340.54 553.97L339.91 554.56L339.28 555.16L338.63 555.76L337.98 556.38L337.32 556.99L336 558.21L335.34 558.81L334.69 559.4L334.04 559.99L333.39 560.56L332.76 561.11L332.14 561.65L331.53 562.17L330.93 562.66L330.35 563.13L329.79 563.57L329.25 563.98L328.72 564.36L328.22 564.71L327.43 563.53L327.9 563.21L328.4 562.84L328.92 562.45L329.46 562.02L330.03 561.56L330.61 561.08L331.21 560.57L331.83 560.04L332.45 559.5L333.09 558.93L333.73 558.35L334.38 557.76L335.04 557.16L335.7 556.56L337.01 555.34L337.66 554.73L338.3 554.13L338.94 553.52L339.57 552.93L340.19 552.36L340.79 551.79L341.38 551.24L341.95 550.71L342.51 550.2L343.04 549.71L343.55 549.25L344.04 548.82L344.49 548.41L344.93 548.04L345.33 547.71L345.7 547.41ZM350.37 520.06H351.79V521.94L351.81 523.7L351.84 525.37L351.88 526.93L351.91 528.4L351.96 529.79L352 531.08L352.04 532.3L352.08 533.44L352.11 534.51L352.13 535.51L352.14 536.45L352.15 537.33L352.13 538.16L352.1 538.94L352.05 539.68L351.97 540.38L351.87 541.04L351.74 541.68L351.58 542.28L351.39 542.86L351.16 543.42L350.89 543.96L350.59 544.49L350.24 545L349.85 545.5L349.42 546L348.94 546.48L348.43 546.98L347.86 547.48L347.24 548L346.57 548.53L345.7 547.41L346.34 546.9L346.93 546.41L347.46 545.94L347.94 545.48L348.37 545.04L348.75 544.6L349.09 544.16L349.38 543.73L349.64 543.29L349.87 542.84L350.06 542.37L350.22 541.88L350.36 541.35L350.48 540.8L350.57 540.2L350.63 539.55L350.68 538.86L350.71 538.12L350.73 537.32V536.46L350.71 535.54L350.69 534.55L350.66 533.48L350.62 532.35L350.58 531.13L350.54 529.83L350.5 528.45L350.46 526.96L350.42 525.39L350.39 523.72L350.38 521.95L350.37 520.06ZM327.12 516.86H328.54L327.83 516.15L328.9 516.14L329.97 516.13L331.04 516.1L332.11 516.07L333.17 516.04L334.22 516L335.26 515.95L336.29 515.91L337.3 515.87L338.3 515.84L339.27 515.8L340.23 515.78L341.16 515.76L342.06 515.75L342.94 515.76L343.79 515.78L344.61 515.82L345.4 515.87L346.15 515.95L346.86 516.04L347.54 516.16L348.18 516.3L348.79 516.48L349.34 516.69L349.86 516.95L350.33 517.24L350.75 517.59L351.11 517.98L351.41 518.44L351.62 518.94L351.75 519.48L351.79 520.06H350.37L350.34 519.7L350.27 519.38L350.15 519.1L349.99 518.85L349.77 518.61L349.5 518.39L349.18 518.19L348.79 518L348.33 517.83L347.82 517.68L347.26 517.55L346.65 517.44L345.99 517.35L345.28 517.29L344.53 517.23L343.75 517.2L342.92 517.18L342.06 517.17L341.18 517.18L340.26 517.2L339.31 517.22L338.34 517.25L337.36 517.29L336.34 517.33L335.32 517.37L334.28 517.41L333.22 517.45L332.16 517.49L331.08 517.52L330 517.55L328.91 517.56L327.83 517.57L327.12 516.86ZM327.83 517.57H327.12V516.86L327.83 517.57ZM328.54 501.64V516.86H327.12V501.64L327.43 501.05L328.54 501.64ZM327.12 501.64V501.26L327.43 501.05L327.12 501.64ZM330.02 498.93L330.93 500.02H330.92L330.8 500.13L330.69 500.21L330.59 500.3L330.49 500.39L330.4 500.46L330.32 500.54L330.24 500.61L330.16 500.67L330.1 500.73L330.03 500.8L329.9 500.91L329.79 501.02L329.72 501.08L329.66 501.13L329.6 501.19L329.54 501.25L329.47 501.3L329.33 501.42L329.26 501.48L329.18 501.54L329.1 501.61L328.92 501.74L328.82 501.82L328.71 501.89L328.61 501.97L328.48 502.05L328.36 502.14L328.22 502.23L327.43 501.05L327.56 500.96L327.68 500.88L327.79 500.8L327.89 500.73L327.99 500.67L328.07 500.6L328.16 500.54L328.23 500.48L328.3 500.43L328.37 500.38L328.43 500.33L328.49 500.28L328.54 500.23L328.6 500.18L328.65 500.13L328.71 500.09L328.76 500.04L328.82 499.98L328.88 499.93L328.94 499.87L329 499.81L329.07 499.75L329.14 499.69L329.21 499.62L329.29 499.55L329.38 499.47L329.47 499.39L329.57 499.31L329.67 499.22L329.78 499.13L329.9 499.03L330.03 498.93H330.02ZM330.93 500.02H330.92L330.91 500.04L330.93 500.02ZM342.71 490.17L330.93 500.02L330.02 498.93L341.8 489.08L341.83 489.06L342.71 490.17ZM341.8 489.08L341.82 489.07L341.83 489.06L341.8 489.08ZM346.78 476.56L347.49 475.33H347.48L348.21 475.76L348.86 476.19L349.45 476.62L349.97 477.05L350.43 477.47L350.82 477.91L351.16 478.35L351.43 478.8L351.64 479.27L351.79 479.74L351.86 480.22V480.7L351.8 481.18L351.68 481.64L351.5 482.1L351.27 482.55L350.99 483L350.68 483.43L350.32 483.87L349.92 484.31L349.48 484.75L349.02 485.2L348.51 485.64L347.98 486.11L347.41 486.57L346.81 487.05L346.18 487.54L345.53 488.04L344.86 488.56L344.15 489.09L343.43 489.63L342.69 490.19L341.83 489.06L342.58 488.5L343.3 487.95L344 487.43L344.67 486.92L345.31 486.42L345.93 485.94L346.51 485.47L347.06 485.02L347.57 484.58L348.05 484.15L348.49 483.74L348.89 483.33L349.24 482.94L349.55 482.57L349.82 482.2L350.04 481.85L350.2 481.52L350.33 481.2L350.41 480.9L350.45 480.61V480.33L350.4 480.05L350.31 479.77L350.18 479.46L349.99 479.15L349.73 478.82L349.42 478.47L349.04 478.11L348.58 477.74L348.05 477.36L347.45 476.96L346.78 476.56ZM328.18 464.18L347.49 475.33L346.78 476.56L327.47 465.41L327.12 464.79L328.18 464.18ZM327.47 465.41L327.12 465.2V464.79L327.47 465.41ZM328.54 449.57V464.79H327.12V449.57L327.83 448.86L328.54 449.57ZM327.12 449.57V448.86H327.83L327.12 449.57ZM405.59 450.28H327.83V448.86H405.59L406.29 449.41L405.59 450.28ZM405.59 448.86H406.16L406.29 449.41L405.59 448.86ZM440.22 460.91L441.19 461.94L440.08 462.92L438.93 463.8L437.73 464.61L436.49 465.32L435.22 465.94L433.92 466.47L432.59 466.91L431.25 467.26L429.89 467.53L428.52 467.7L427.14 467.79H425.77L424.39 467.7L423.02 467.53L421.67 467.26L420.33 466.91L419.01 466.48L417.72 465.95L416.46 465.34L415.23 464.65L414.05 463.87L412.9 463L411.81 462.05L410.77 461.01L409.78 459.89L408.86 458.69L408.01 457.4L407.23 456.03L406.52 454.58L405.89 453.04L405.36 451.43L404.9 449.73L406.29 449.41L406.71 451.02L407.23 452.55L407.82 454L408.48 455.37L409.21 456.66L410.02 457.87L410.88 459L411.8 460.04L412.77 461.01L413.8 461.9L414.86 462.71L415.97 463.44L417.12 464.09L418.3 464.66L419.5 465.14L420.73 465.55L421.98 465.88L423.25 466.13L424.53 466.29L425.81 466.37H427.1L428.38 466.29L429.66 466.13L430.93 465.88L432.19 465.55L433.42 465.14L434.64 464.64L435.82 464.06L436.98 463.4L438.1 462.66L439.18 461.82L440.22 460.91ZM413.09 430.63L412.09 429.62L413.94 427.98L415.85 426.63L417.81 425.54L419.8 424.71L421.82 424.14L423.84 423.8L425.86 423.7L427.87 423.82L429.84 424.14L431.77 424.65L433.65 425.35L435.46 426.22L437.2 427.24L438.85 428.42L440.41 429.72L441.86 431.16L443.19 432.7L444.39 434.35L445.45 436.09L446.36 437.91L447.11 439.81L447.68 441.76L448.07 443.76L448.25 445.8L448.23 447.86L447.98 449.94L447.5 452.01L446.77 454.07L445.78 456.11L444.53 458.11L443 460.05L441.19 461.94L440.22 460.91L441.93 459.13L443.37 457.29L444.54 455.43L445.46 453.53L446.13 451.61L446.58 449.69L446.81 447.77L446.84 445.85L446.66 443.96L446.3 442.09L445.77 440.27L445.07 438.49L444.21 436.78L443.21 435.14L442.08 433.58L440.82 432.13L439.45 430.77L437.98 429.54L436.43 428.43L434.79 427.47L433.09 426.66L431.34 426L429.54 425.52L427.71 425.23L425.86 425.12L424 425.21L422.13 425.52L420.27 426.05L418.43 426.81L416.61 427.82L414.82 429.09L413.09 430.63ZM405.59 443.07V441.66L404.9 442.2L405.05 441.61L405.19 441.03L405.33 440.48L405.47 439.96L405.62 439.46L405.77 438.98L405.91 438.51L406.07 438.07L406.23 437.64L406.39 437.22L406.55 436.82L406.73 436.43L406.91 436.06L407.09 435.7L407.29 435.34L407.48 434.99L407.7 434.65L407.91 434.32L408.14 433.99L408.38 433.67L408.62 433.34L408.88 433.02L409.14 432.71L409.42 432.38L409.71 432.06L410.01 431.73L410.32 431.4L410.64 431.07L410.98 430.72L411.71 430L412.09 429.62L413.09 430.63L412.7 431.01L412.34 431.37L412 431.71L411.66 432.05L411.35 432.38L411.05 432.7L410.76 433.01L410.48 433.32L410.22 433.62L409.98 433.92L409.74 434.22L409.51 434.51L409.3 434.81L409.09 435.11L408.89 435.41L408.7 435.72L408.52 436.03L408.35 436.36L408.18 436.69L408.02 437.03L407.86 437.38L407.7 437.75L407.55 438.14L407.41 438.54L407.26 438.96L407.12 439.4L406.98 439.86L406.84 440.34L406.7 440.85L406.56 441.38L406.43 441.94L406.29 442.52L405.59 443.07ZM406.29 442.52L406.16 443.07H405.59L406.29 442.52ZM351.08 441.66H405.59V443.07H351.08L350.37 442.36L351.08 441.66ZM351.08 443.07H350.37V442.36L351.08 443.07ZM351.79 415.93V442.36H350.37V415.93H351.79ZM339.95 403.02L340.96 402.01L341.36 402.41L341.78 402.82L342.21 403.23L342.64 403.64L343.08 404.05L343.53 404.47L344.43 405.31L344.88 405.73L345.33 406.16L345.77 406.59L346.21 407.02L346.65 407.45L347.08 407.88L347.5 408.31L347.91 408.75L348.31 409.18L348.69 409.62L349.06 410.06L349.42 410.5L349.75 410.94L350.07 411.38L350.37 411.82L350.64 412.27L350.89 412.72L351.11 413.17L351.31 413.62L351.47 414.08L351.61 414.54L351.71 415L351.77 415.46L351.79 415.93H350.37L350.35 415.59L350.31 415.24L350.23 414.88L350.13 414.52L349.99 414.14L349.82 413.77L349.63 413.38L349.41 412.99L349.17 412.59L348.9 412.19L348.61 411.78L348.3 411.37L347.97 410.96L347.62 410.55L347.25 410.13L346.87 409.71L346.47 409.29L346.07 408.87L345.65 408.45L345.22 408.03L344.35 407.19L343.9 406.77L343.45 406.34L343.01 405.93L342.56 405.5L342.11 405.09L341.67 404.67L341.23 404.25L340.8 403.84L340.37 403.43L339.95 403.02ZM327.12 391.1H328.54L328.16 390.47L328.65 390.74L329.14 391.02L329.61 391.31L330.07 391.61L330.52 391.92L330.97 392.23L331.4 392.56L331.83 392.89L332.25 393.24L332.67 393.59L333.07 393.94L333.48 394.3L333.88 394.66L334.27 395.04L334.65 395.41L335.04 395.79L335.41 396.17L335.79 396.55L336.16 396.95L336.53 397.33L336.9 397.73L337.27 398.12L338 398.91L338.36 399.3L338.73 399.69L339.46 400.47L339.84 400.86L340.21 401.25L340.96 402.01L339.95 403.02L339.19 402.23L338.81 401.84L338.43 401.45L338.06 401.05L337.69 400.66L337.32 400.26L336.96 399.87L336.59 399.48L336.23 399.09L335.86 398.7L335.5 398.31L335.13 397.92L334.77 397.54L334.4 397.16L334.03 396.79L333.66 396.42L333.28 396.06L332.9 395.7L332.52 395.35L332.14 395L331.75 394.66L331.35 394.33L330.95 394.01L330.54 393.69L330.13 393.38L329.71 393.08L329.28 392.79L328.85 392.51L328.41 392.24L327.96 391.98L327.5 391.73L327.12 391.1ZM327.5 391.73L327.12 391.53V391.1L327.5 391.73ZM328.54 363.06V391.1H327.12V363.06L327.77 362.36L328.54 363.06ZM327.12 363.06V362.41L327.77 362.36L327.12 363.06ZM372.38 327.72L373.6 328.45L372.83 329.67L371.96 330.93L371 332.23L369.96 333.56L368.84 334.92L367.63 336.31L366.36 337.72L365.02 339.14L363.63 340.57L362.18 342.01L360.68 343.44L359.14 344.87L357.57 346.29L355.96 347.68L354.32 349.06L352.67 350.4L351 351.72L349.32 352.99L347.64 354.23L345.96 355.41L344.29 356.54L342.64 357.6L341 358.6L339.38 359.53L337.79 360.39L336.24 361.16L334.72 361.85L333.25 362.44L331.83 362.93L330.46 363.32L329.14 363.61L327.89 363.77L327.77 362.36L328.9 362.21L330.11 361.95L331.4 361.58L332.75 361.11L334.16 360.54L335.63 359.88L337.14 359.13L338.69 358.29L340.27 357.38L341.88 356.4L343.52 355.35L345.16 354.24L346.82 353.07L348.48 351.86L350.13 350.6L351.78 349.3L353.42 347.96L355.04 346.61L356.63 345.22L358.18 343.82L359.71 342.41L361.19 340.99L362.62 339.57L364 338.16L365.32 336.76L366.57 335.37L367.75 334.01L368.86 332.67L369.88 331.37L370.81 330.11L371.65 328.89L372.38 327.72ZM388.05 269.34H389.47L389.46 271.87L389.44 274.3L389.39 276.63L389.33 278.87L389.25 281.03L389.15 283.11L389.02 285.13L388.86 287.07L388.68 288.96L388.47 290.79L388.23 292.57L387.96 294.32L387.66 296.02L387.32 297.69L386.94 299.33L386.52 300.95L386.07 302.56L385.58 304.15L385.04 305.74L384.46 307.33L383.84 308.93L383.17 310.54L382.45 312.16L381.68 313.8L380.86 315.48L379.99 317.19L379.07 318.93L378.09 320.72L377.06 322.57L375.96 324.46L374.81 326.43L373.6 328.45L372.38 327.72L373.59 325.7L374.74 323.75L375.82 321.87L376.85 320.04L377.82 318.26L378.73 316.54L379.59 314.85L380.4 313.2L381.16 311.57L381.86 309.98L382.52 308.4L383.14 306.83L383.7 305.27L384.23 303.71L384.71 302.16L385.16 300.59L385.56 299L385.93 297.39L386.26 295.75L386.56 294.08L386.83 292.37L387.06 290.62L387.27 288.81L387.45 286.95L387.6 285.02L387.73 283.03L387.83 280.97L387.91 278.82L387.98 276.59L388.02 274.27L388.04 271.86L388.05 269.34ZM378.78 234.13L380.06 233.51L380.45 234.33L380.84 235.18L381.24 236.07L381.64 237L382.04 237.96L382.45 238.94L382.85 239.96L383.25 241L383.66 242.07L384.05 243.16L384.45 244.27L384.83 245.39L385.21 246.54L385.58 247.71L385.95 248.89L386.29 250.07L386.63 251.28L386.96 252.48L387.27 253.7L387.57 254.92L387.84 256.15L388.11 257.38L388.35 258.6L388.57 259.82L388.77 261.05L388.95 262.26L389.1 263.47L389.23 264.67L389.33 265.86L389.41 267.04L389.45 268.2L389.47 269.34H388.05L388.04 268.23L387.99 267.11L387.92 265.96L387.82 264.81L387.69 263.64L387.54 262.45L387.37 261.27L387.17 260.07L386.95 258.86L386.71 257.66L386.46 256.45L386.18 255.25L385.89 254.04L385.59 252.84L385.27 251.65L384.93 250.47L384.59 249.29L384.23 248.13L383.86 246.98L383.49 245.85L383.11 244.73L382.72 243.63L382.32 242.56L381.93 241.5L381.53 240.48L381.13 239.47L380.73 238.5L380.34 237.56L379.94 236.64L379.55 235.77L379.16 234.93L378.78 234.13ZM362.83 211.19L363.79 210.14L363.84 210.2L364.35 210.79L364.88 211.39L365.41 212.02L365.95 212.66L366.5 213.32L367.05 214L367.61 214.69L368.17 215.4L368.73 216.12L369.3 216.85L369.86 217.59L370.43 218.34L370.99 219.1L371.55 219.87L372.66 221.41L373.21 222.2L373.75 222.98L374.29 223.76L374.81 224.54L375.33 225.32L375.83 226.11L376.32 226.88L376.8 227.65L377.27 228.41L377.72 229.17L378.16 229.92L378.57 230.66L378.98 231.39L379.36 232.11L379.72 232.82L380.06 233.51L378.78 234.13L378.45 233.45L378.1 232.77L377.73 232.07L377.34 231.35L376.93 230.63L376.5 229.89L376.05 229.14L375.59 228.39L375.12 227.63L374.64 226.87L374.14 226.1L373.63 225.33L373.11 224.55L372.58 223.78L372.05 223.01L371.5 222.23L370.96 221.46L370.41 220.7L369.85 219.95L369.29 219.19L368.73 218.45L368.17 217.71L367.61 216.99L367.05 216.28L366.5 215.58L365.95 214.89L365.4 214.22L364.86 213.57L364.32 212.93L363.8 212.31L363.28 211.71L362.78 211.14L362.83 211.19ZM363.79 210.14L363.81 210.17L363.84 210.2L363.79 210.14ZM354.54 201.76L363.79 210.14L362.83 211.19L353.59 202.81L354.52 201.74L354.54 201.76ZM332.35 189.89L332.93 188.59L333.53 188.86L334.14 189.15L334.78 189.46L335.43 189.77L336.1 190.11L336.78 190.46L337.47 190.82L338.18 191.19L338.89 191.57L339.62 191.96L340.35 192.37L341.09 192.78L341.82 193.2L342.57 193.63L343.31 194.06L344.05 194.5L344.79 194.95L345.52 195.4L346.25 195.86L346.97 196.31L347.68 196.77L348.39 197.23L349.08 197.69L349.75 198.15L350.42 198.61L351.07 199.07L351.7 199.53L352.3 199.98L352.89 200.43L353.46 200.87L354 201.31L354.52 201.74L353.6 202.82L353.1 202.41L352.58 201.98L352.02 201.55L351.45 201.11L350.86 200.67L350.24 200.22L349.61 199.77L348.95 199.32L348.29 198.87L347.61 198.41L346.91 197.96L346.21 197.51L345.49 197.05L344.77 196.61L344.05 196.16L343.32 195.72L342.59 195.29L341.85 194.86L341.12 194.43L340.39 194.02L339.66 193.61L338.94 193.21L338.22 192.82L337.52 192.44L336.82 192.07L336.13 191.71L335.46 191.38L334.8 191.05L334.16 190.73L333.54 190.43L332.93 190.15L332.35 189.89ZM275.07 184.31L274.73 182.93L276.49 182.52L278.27 182.16L280.07 181.83L281.89 181.54L283.72 181.3L285.57 181.09L287.43 180.93L289.3 180.8L291.18 180.72L293.07 180.67L294.96 180.66L296.85 180.69L298.75 180.76L300.65 180.86L302.54 181L304.44 181.18L306.33 181.39L308.21 181.64L310.08 181.92L311.95 182.23L313.8 182.59L315.64 182.97L317.46 183.39L319.27 183.84L321.06 184.32L322.83 184.84L324.58 185.39L326.3 185.96L328 186.58L329.68 187.22L331.32 187.89L332.93 188.59L332.35 189.89L330.77 189.2L329.15 188.54L327.51 187.91L325.84 187.3L324.14 186.73L322.42 186.2L320.68 185.69L318.91 185.21L317.13 184.77L315.34 184.36L313.52 183.98L311.7 183.63L309.86 183.32L308.01 183.04L306.16 182.8L304.29 182.59L302.43 182.41L300.56 182.28L298.69 182.18L296.82 182.11L294.95 182.08L293.09 182.09L291.23 182.14L289.38 182.22L287.54 182.34L285.71 182.5L283.89 182.71L282.09 182.95L280.31 183.23L278.54 183.55L276.8 183.91L275.07 184.31ZM266.21 186.6L265.76 185.25L266 185.18L266.24 185.09L266.75 184.94L267.02 184.86L267.28 184.79L267.55 184.71L267.83 184.63L268.11 184.55L268.39 184.48L268.68 184.4L268.97 184.33L269.85 184.11L270.14 184.04L270.44 183.96L270.74 183.89L271.04 183.82L271.63 183.68L272.51 183.46L272.8 183.4L273.09 183.33L273.65 183.2L273.93 183.13L274.47 183L274.73 182.93L275.07 184.31L274.8 184.38L274.54 184.44L274.26 184.51L273.98 184.57L273.7 184.64L273.42 184.71L273.13 184.78L272.84 184.84L271.96 185.05L271.66 185.13L271.37 185.2L271.07 185.27L270.78 185.34L270.48 185.41L270.19 185.48L269.9 185.55L269.61 185.63L269.04 185.78L268.76 185.85L268.48 185.93L268.21 186L267.94 186.07L267.67 186.15L267.41 186.22L266.91 186.37L266.67 186.45L266.44 186.52L266.21 186.6ZM262.22 188.19L261.73 186.86L261.86 186.81L262 186.76L262.12 186.71L262.25 186.66L262.36 186.61L262.48 186.57L262.71 186.47L263.04 186.33L263.14 186.29L263.36 186.19L263.68 186.05L263.8 186L263.91 185.95L264.15 185.85L264.27 185.8L264.53 185.7L264.67 185.64L264.8 185.59L264.95 185.54L265.1 185.48L265.25 185.43L265.41 185.37L265.58 185.31L265.76 185.25L266.21 186.6L266.04 186.65L265.73 186.76L265.59 186.82L265.45 186.87L265.31 186.92L265.05 187.02L264.81 187.11L264.69 187.16L264.46 187.26L264.25 187.35L264.14 187.4L263.93 187.49L263.49 187.68L263.38 187.73L263.26 187.78L263.14 187.83L263.02 187.88L262.77 187.98L262.64 188.03L262.5 188.09L262.37 188.14L262.22 188.19ZM230.29 208L229.35 206.93L230.25 206.14L231.17 205.36L232.08 204.58L233 203.82L233.93 203.07L234.87 202.32L235.8 201.58L236.75 200.86L237.7 200.14L238.66 199.44L239.63 198.74L240.59 198.05L241.57 197.38L242.56 196.72L243.55 196.07L244.55 195.43L245.55 194.8L246.57 194.18L247.59 193.57L248.63 192.98L249.67 192.39L250.72 191.83L251.77 191.27L252.84 190.73L253.92 190.2L255 189.68L256.1 189.18L257.2 188.68L258.32 188.21L259.45 187.75L260.58 187.3L261.73 186.86L262.22 188.19L261.09 188.62L259.98 189.06L258.87 189.52L257.77 189.98L256.68 190.47L255.61 190.96L254.54 191.47L253.48 192L252.43 192.53L251.39 193.08L250.35 193.64L249.33 194.21L248.31 194.8L247.3 195.39L246.3 196L245.31 196.62L244.32 197.25L243.34 197.9L242.37 198.55L241.41 199.22L240.45 199.89L239.5 200.58L238.55 201.28L237.61 201.98L236.68 202.7L235.75 203.43L234.82 204.17L233.91 204.91L233 205.67L232.09 206.44L231.18 207.21L230.29 208ZM211.18 234.13L209.88 233.57L210.17 232.92L210.51 232.22L210.9 231.48L211.33 230.7L211.8 229.88L212.31 229.03L212.85 228.15L213.43 227.23L214.03 226.3L214.66 225.35L215.31 224.38L215.99 223.39L216.68 222.41L217.38 221.41L218.1 220.41L218.83 219.42L219.56 218.43L220.3 217.45L221.03 216.49L221.77 215.54L222.49 214.62L223.21 213.72L223.92 212.85L224.62 212.01L225.29 211.21L225.95 210.45L226.59 209.73L227.2 209.06L227.78 208.45L228.34 207.88L228.86 207.38L229.35 206.93L230.29 208L229.83 208.41L229.34 208.89L228.8 209.43L228.24 210.03L227.64 210.68L227.02 211.38L226.38 212.13L225.7 212.92L225.02 213.75L224.32 214.61L223.61 215.5L222.88 216.41L222.16 217.35L221.43 218.31L220.7 219.28L219.97 220.26L219.25 221.24L218.54 222.23L217.84 223.22L217.15 224.2L216.49 225.18L215.84 226.13L215.22 227.08L214.62 228L214.05 228.89L213.52 229.77L213.02 230.6L212.57 231.4L212.15 232.15L211.78 232.86L211.45 233.52L211.18 234.13ZM201.87 270.95H200.45L200.46 269.57L200.5 268.22L200.57 266.88L200.67 265.55L200.79 264.23L200.93 262.93L201.1 261.64L201.29 260.37L201.5 259.11L201.73 257.87L201.98 256.63L202.25 255.41L202.53 254.21L202.83 253.02L203.15 251.84L203.48 250.67L203.82 249.51L204.18 248.37L204.54 247.24L204.92 246.12L205.3 245.01L205.7 243.92L206.1 242.83L206.5 241.76L206.92 240.7L207.34 239.65L207.76 238.61L208.18 237.58L208.6 236.56L209.03 235.55L209.45 234.55L209.88 233.57L211.18 234.13L210.76 235.11L210.34 236.11L209.91 237.11L209.49 238.12L209.07 239.14L208.65 240.18L208.24 241.21L207.83 242.27L207.43 243.33L207.03 244.4L206.64 245.48L206.26 246.58L205.89 247.68L205.53 248.8L205.18 249.93L204.84 251.06L204.52 252.21L204.21 253.37L203.91 254.54L203.63 255.73L203.37 256.93L203.13 258.14L202.9 259.36L202.69 260.59L202.51 261.84L202.34 263.1L202.2 264.38L202.09 265.66L201.99 266.96L201.93 268.28L201.88 269.61L201.87 270.95Z" fill="black"/>
<path fill-rule="evenodd" clip-rule="evenodd" d="M266.49 548.44C266.61 542.71 266.57 409.05 266.56 384.5C266.55 353.28 265.79 363.09 265.66 368.88C265.51 375.63 265.57 508.14 265.58 533.46C265.59 564.9 266.36 554.57 266.49 548.44Z" fill="#FDFEFF"/>
<path fill-rule="evenodd" clip-rule="evenodd" d="M297.114 541.284C298.114 538.097 297.762 463.554 297.715 449.867C297.661 432.456 291.555 437.925 290.52 441.156C289.309 444.917 289.793 518.812 289.836 532.933C289.891 550.468 296.043 544.706 297.114 541.284Z" fill="#FDFEFF" stroke="black" stroke-width="1.41861" stroke-miterlimit="22.93"/>
<path fill-rule="evenodd" clip-rule="evenodd" d="M323.11 467.43C324.59 468.43 324.15 465.06 324.15 463.16V450.51C324.15 447.53 324.48 445.3 323.25 445.61C322.79 446.72 323.01 449.25 323.01 450.86C323.01 453.92 322.88 466.13 323.11 467.43Z" fill="#FDFEFF"/>
<path fill-rule="evenodd" clip-rule="evenodd" d="M322.82 583.75C324.29 584.75 323.86 581.38 323.86 579.48V566.82C323.86 563.84 324.19 561.62 322.96 561.93C322.5 563.04 322.72 565.57 322.72 567.18C322.72 570.23 322.59 582.44 322.82 583.75Z" fill="#FDFEFF"/>
<path fill-rule="evenodd" clip-rule="evenodd" d="M293.48 581.64C294.96 582.64 294.52 579.27 294.52 577.37V564.72C294.52 561.73 294.85 559.51 293.62 559.82C293.16 560.93 293.38 563.46 293.38 565.07C293.38 568.13 293.25 580.33 293.48 581.64Z" fill="#FDFEFF"/>
<path fill-rule="evenodd" clip-rule="evenodd" d="M292.719 253.613C274.047 245.746 285 219.066 303.934 227.043C320.618 234.07 309.407 260.64 292.719 253.613ZM276.492 233.617C268.586 263.168 311.524 273.601 319.086 245.937C322.043 235.113 316.368 221.984 303.598 218.59C292.793 215.714 279.832 221.125 276.492 233.617Z" fill="url(#paint3_linear_1_2)" stroke="black" stroke-width="1.41861" stroke-miterlimit="22.93"/>
<path fill-rule="evenodd" clip-rule="evenodd" d="M122.258 378.082C138.941 373.097 146.305 397.875 130.176 403.437C119.184 407.222 107.836 396.644 114.332 383.613C116.324 379.617 117.442 379.519 122.258 378.082ZM104.996 388.714V392.722C104.996 413.527 140.36 421.452 146.684 394.324H193.184C195.727 398.117 209.695 412.746 214.028 412.746H250.907C254.68 412.746 254.114 408.902 254.114 406.339C249.195 403.738 242.848 404.738 234.875 404.738C227.926 404.738 220.977 404.738 214.028 404.738L197.004 387.3L146.684 387.113C145.406 381.624 143.414 378.222 139.68 374.89C125.461 362.207 104.996 374.398 104.996 388.714Z" fill="#3189C6" stroke="black" stroke-width="1.41861" stroke-miterlimit="22.93"/>
<path fill-rule="evenodd" clip-rule="evenodd" d="M121.906 485.171C138.43 479.343 145.945 505.706 129.91 510.597C112.766 515.827 104.043 491.476 121.906 485.171ZM193.707 493.476H146.406C143.606 487.652 139.324 476.656 126.363 476.656C114.739 476.656 104.715 485.941 104.715 495.878C104.715 505.949 107.824 512.679 117.105 517.144C128.57 522.66 143.008 516.054 146.406 501.488H196.914L213.938 484.05L245.028 483.874C250.477 483.917 250.184 484.191 253.832 482.261C253.832 479.695 254.399 475.855 250.625 475.855H213.746C209.375 475.855 196.172 489.796 193.707 493.476Z" fill="#3189C6" stroke="black" stroke-width="1.41861" stroke-miterlimit="22.93"/>
<path fill-rule="evenodd" clip-rule="evenodd" d="M490.173 485.179C507.415 479.765 514.692 505.558 498.645 510.609C480.993 516.167 473.602 490.378 490.173 485.179ZM366.075 479.109V482.316C369.727 484.246 369.434 483.972 374.883 483.929L406.161 483.917L423.184 501.351L473.505 501.539C474.735 506.82 476.59 510.101 480.098 513.374C494.602 526.898 515.196 513.929 515.196 499.937C515.196 492.445 514.68 488.164 508.602 482.496C500.797 475.218 488.962 474.57 480.512 482.105C475.587 486.503 476.239 487.839 473.505 493.527H426.204C423.692 489.781 410.489 475.906 406.161 475.906H369.282C367.407 475.906 366.075 477.234 366.075 479.109Z" fill="url(#paint4_linear_1_2)" stroke="black" stroke-width="1.41861" stroke-miterlimit="22.93"/>
<path fill-rule="evenodd" clip-rule="evenodd" d="M490.309 377.742C498.391 374.98 505.337 380.609 507.184 386.804C509.286 393.855 504.18 401.476 498.88 403.195C481.755 408.742 472.93 383.675 490.309 377.742ZM473.505 386.816H422.997L405.973 404.253L374.883 404.429C369.434 404.386 369.727 404.113 366.075 406.043C366.075 408.605 365.508 412.449 369.282 412.449H406.161C410.548 412.449 424.512 397.75 427.008 394.027H473.505C479.833 421.156 515.196 413.234 515.196 392.425V388.421C515.196 367.613 479.833 359.687 473.505 386.816Z" fill="url(#paint5_linear_1_2)" stroke="black" stroke-width="1.41861" stroke-miterlimit="22.93"/>
<defs>
<linearGradient id="paint0_linear_1_2" x1="488.357" y1="504.047" x2="502.701" y2="357.313" gradientUnits="userSpaceOnUse">
<stop stop-color="#132C3D"/>
<stop offset="1" stop-color="white"/>
</linearGradient>
<linearGradient id="paint1_linear_1_2" x1="477.91" y1="408.423" x2="486.898" y2="340.42" gradientUnits="userSpaceOnUse">
<stop stop-color="#132C3D"/>
<stop offset="1" stop-color="white"/>
</linearGradient>
<linearGradient id="paint2_linear_1_2" x1="531.821" y1="213.933" x2="648.329" y2="185.072" gradientUnits="userSpaceOnUse">
<stop stop-color="#3189C6"/>
<stop offset="1" stop-color="#FEFEFE"/>
</linearGradient>
<linearGradient id="paint3_linear_1_2" x1="311.875" y1="257.198" x2="361.823" y2="192.073" gradientUnits="userSpaceOnUse">
<stop offset="0.226" stop-color="#044776"/>
<stop offset="1" stop-color="#FEFEFE"/>
</linearGradient>
<linearGradient id="paint4_linear_1_2" x1="524.143" y1="468.134" x2="530.949" y2="400.975" gradientUnits="userSpaceOnUse">
<stop stop-color="#3189C6"/>
<stop offset="1" stop-color="#FEFEFE"/>
</linearGradient>
<linearGradient id="paint5_linear_1_2" x1="540.552" y1="354.853" x2="545.106" y2="339.882" gradientUnits="userSpaceOnUse">
<stop stop-color="#3189C6"/>
<stop offset="1" stop-color="#FEFEFE"/>
</linearGradient>
</defs>
</svg>
